SplineFontDB: 3.0
FontName: Candal
FullName: Candal
FamilyName: Candal
Weight: Book
Copyright: Copyright (c) 2011 by vernon adams. All rights reserved.
Version: 1.000
ItalicAngle: 0
UnderlinePosition: -50
UnderlineWidth: 50
Ascent: 1638
Descent: 410
LayerCount: 2
Layer: 0 1 "Back"  1
Layer: 1 1 "Fore"  0
XUID: [1021 823 301787212 16360171]
FSType: 0
OS2Version: 1
OS2_WeightWidthSlopeOnly: 0
OS2_UseTypoMetrics: 1
CreationTime: 1297380780
ModificationTime: 1298205880
PfmFamily: 17
TTFWeight: 400
TTFWidth: 5
LineGap: 44
VLineGap: 0
Panose: 2 0 0 0 0 0 0 0 0 0
OS2TypoAscent: -62
OS2TypoAOffset: 1
OS2TypoDescent: -8
OS2TypoDOffset: 1
OS2TypoLinegap: 86
OS2WinAscent: -54
OS2WinAOffset: 1
OS2WinDescent: -169
OS2WinDOffset: 1
HheadAscent: -54
HheadAOffset: 1
HheadDescent: 169
HheadDOffset: 1
OS2SubXSize: 1434
OS2SubYSize: 1331
OS2SubXOff: 0
OS2SubYOff: 287
OS2SupXSize: 1434
OS2SupYSize: 1331
OS2SupXOff: 0
OS2SupYOff: 977
OS2StrikeYSize: 102
OS2StrikeYPos: 512
OS2Vendor: 'newt'
OS2CodePages: 20000111.00000000
OS2UnicodeRanges: 800000af.4000204a.00000000.00000000
Lookup: 258 0 0 "'kern' Horizontal Kerning in Latin lookup 0"  {"'kern' Horizontal Kerning in Latin lookup 0 subtable"  } ['kern' ('latn' <'dflt' > ) ]
DEI: 91125
TtTable: prep
PUSHW_1
 511
SCANCTRL
PUSHB_1
 4
SCANTYPE
EndTTInstrs
ShortTable: maxp 16
  1
  0
  233
  117
  3
  100
  4
  2
  0
  0
  0
  0
  0
  0
  2
  1
EndShort
LangName: 1033 "" "" "Regular" "vernonadams: Candal: 2011" "" "Version 1.000" "" "Candal is a trademark of vernon adams." "vernon adams" "vernon adams" "Copyright (c) 2011 by vernon adams. All rights reserved." "" "" "" "" "" "" "" "Candal" 
GaspTable: 1 65535 14
Encoding: UnicodeBmp
UnicodeInterp: none
NameList: Adobe Glyph List
DisplaySize: -48
AntiAlias: 1
FitToEm: 1
WinInfo: 50 25 13
BeginChars: 65539 233

StartChar: exclam
Encoding: 33 33 4
Width: 807
GlyphClass: 2
Flags: W
LayerCount: 2
Fore
SplineSet
177 1464 m 1,0,-1
 625 1464 l 1,1,-1
 585 471 l 1,2,-1
 217 471 l 1,3,-1
 177 1464 l 1,0,-1
406 -28 m 0,4,5
 341 -28 341 -28 292.5 -12.5 c 128,-1,6
 244 3 244 3 212 29 c 128,-1,7
 180 55 180 55 164 87.5 c 128,-1,8
 148 120 148 120 148 155 c 0,9,10
 148 191 148 191 164.5 226 c 128,-1,11
 181 261 181 261 214 288.5 c 128,-1,12
 247 316 247 316 295 333 c 128,-1,13
 343 350 343 350 406 350 c 256,14,15
 469 350 469 350 517 333 c 128,-1,16
 565 316 565 316 598 288.5 c 128,-1,17
 631 261 631 261 647.5 226.5 c 128,-1,18
 664 192 664 192 664 156 c 0,19,20
 664 121 664 121 648.5 88 c 128,-1,21
 633 55 633 55 601 29 c 128,-1,22
 569 3 569 3 520.5 -12.5 c 128,-1,23
 472 -28 472 -28 406 -28 c 0,4,5
EndSplineSet
EndChar

StartChar: dollar
Encoding: 36 36 7
Width: 1329
GlyphClass: 2
Flags: W
LayerCount: 2
Fore
SplineSet
554 42 m 1,0,1
 453 51 453 51 349 76.5 c 128,-1,2
 245 102 245 102 151 143 c 1,3,-1
 151 475 l 1,4,5
 198 451 198 451 252.5 429.5 c 128,-1,6
 307 408 307 408 364 392.5 c 128,-1,7
 421 377 421 377 479 368 c 128,-1,8
 537 359 537 359 592 359 c 0,9,10
 667 359 667 359 703.5 372.5 c 128,-1,11
 740 386 740 386 740 422 c 0,12,13
 740 451 740 451 731 474.5 c 128,-1,14
 722 498 722 498 696 522 c 128,-1,15
 670 546 670 546 624 572 c 128,-1,16
 578 598 578 598 504 633 c 0,17,18
 461 653 461 653 415.5 676 c 128,-1,19
 370 699 370 699 327 727.5 c 128,-1,20
 284 756 284 756 245.5 790.5 c 128,-1,21
 207 825 207 825 178 868 c 128,-1,22
 149 911 149 911 132 963 c 128,-1,23
 115 1015 115 1015 115 1079 c 0,24,25
 115 1145 115 1145 139.5 1205 c 128,-1,26
 164 1265 164 1265 215 1313.5 c 128,-1,27
 266 1362 266 1362 344.5 1396 c 128,-1,28
 423 1430 423 1430 531 1444 c 1,29,-1
 531 1555 l 1,30,-1
 769 1555 l 1,31,-1
 769 1450 l 1,32,33
 817 1447 817 1447 869 1439 c 128,-1,34
 921 1431 921 1431 973 1417.5 c 128,-1,35
 1025 1404 1025 1404 1073.5 1384 c 128,-1,36
 1122 1364 1122 1364 1163 1335 c 1,37,-1
 1131 1058 l 1,38,39
 1092 1075 1092 1075 1047 1092 c 128,-1,40
 1002 1109 1002 1109 954.5 1122.5 c 128,-1,41
 907 1136 907 1136 859 1144 c 128,-1,42
 811 1152 811 1152 766 1152 c 0,43,44
 701 1152 701 1152 662 1139 c 128,-1,45
 623 1126 623 1126 623 1096 c 0,46,47
 623 1069 623 1069 634.5 1047.5 c 128,-1,48
 646 1026 646 1026 669.5 1006.5 c 128,-1,49
 693 987 693 987 727.5 969 c 128,-1,50
 762 951 762 951 808 930 c 0,51,52
 847 912 847 912 892.5 889 c 128,-1,53
 938 866 938 866 983.5 835.5 c 128,-1,54
 1029 805 1029 805 1071.5 766 c 128,-1,55
 1114 727 1114 727 1146.5 677.5 c 128,-1,56
 1179 628 1179 628 1198.5 567.5 c 128,-1,57
 1218 507 1218 507 1218 433 c 0,58,59
 1218 369 1218 369 1193 306 c 128,-1,60
 1168 243 1168 243 1116 190 c 128,-1,61
 1064 137 1064 137 983.5 98.5 c 128,-1,62
 903 60 903 60 792 45 c 1,63,-1
 792 -78 l 1,64,-1
 554 -78 l 1,65,-1
 554 42 l 1,0,1
EndSplineSet
EndChar

StartChar: parenleft
Encoding: 40 40 11
Width: 940
GlyphClass: 2
Flags: W
LayerCount: 2
Fore
SplineSet
85 711 m 256,0,1
 85 860 85 860 129.5 996 c 128,-1,2
 174 1132 174 1132 259.5 1235.5 c 128,-1,3
 345 1339 345 1339 469.5 1400.5 c 128,-1,4
 594 1462 594 1462 754 1462 c 1,5,-1
 754 1205 l 1,6,7
 704 1205 704 1205 660.5 1162.5 c 128,-1,8
 617 1120 617 1120 584.5 1050.5 c 128,-1,9
 552 981 552 981 533 892 c 128,-1,10
 514 803 514 803 514 711 c 256,11,12
 514 619 514 619 533 530 c 128,-1,13
 552 441 552 441 584.5 371.5 c 128,-1,14
 617 302 617 302 660.5 259.5 c 128,-1,15
 704 217 704 217 754 217 c 1,16,-1
 754 -40 l 1,17,18
 594 -40 594 -40 469.5 21.5 c 128,-1,19
 345 83 345 83 259.5 186.5 c 128,-1,20
 174 290 174 290 129.5 426 c 128,-1,21
 85 562 85 562 85 711 c 256,0,1
EndSplineSet
EndChar

StartChar: parenright
Encoding: 41 41 12
Width: 941
GlyphClass: 2
Flags: W
LayerCount: 2
Fore
SplineSet
856 711 m 256,0,1
 856 562 856 562 811.5 426 c 128,-1,2
 767 290 767 290 681.5 186.5 c 128,-1,3
 596 83 596 83 471.5 21.5 c 128,-1,4
 347 -40 347 -40 187 -40 c 1,5,-1
 187 217 l 1,6,7
 236 217 236 217 280 259.5 c 128,-1,8
 324 302 324 302 356.5 371.5 c 128,-1,9
 389 441 389 441 408 530 c 128,-1,10
 427 619 427 619 427 711 c 256,11,12
 427 803 427 803 408 892 c 128,-1,13
 389 981 389 981 356.5 1050.5 c 128,-1,14
 324 1120 324 1120 280 1162.5 c 128,-1,15
 236 1205 236 1205 187 1205 c 1,16,-1
 187 1462 l 1,17,18
 347 1462 347 1462 471.5 1400.5 c 128,-1,19
 596 1339 596 1339 681.5 1235.5 c 128,-1,20
 767 1132 767 1132 811.5 996 c 128,-1,21
 856 860 856 860 856 711 c 256,0,1
EndSplineSet
EndChar

StartChar: asterisk
Encoding: 42 42 13
Width: 1147
GlyphClass: 2
Flags: W
LayerCount: 2
Fore
SplineSet
401 1086 m 1,0,-1
 249 1404 l 1,1,-1
 442 1496 l 1,2,-1
 573 1199 l 1,3,-1
 705 1496 l 1,4,-1
 898 1404 l 1,5,-1
 746 1086 l 1,6,-1
 1057 1103 l 1,7,-1
 1057 896 l 1,8,-1
 746 913 l 1,9,-1
 898 595 l 1,10,-1
 705 503 l 1,11,-1
 573 800 l 1,12,-1
 442 503 l 1,13,-1
 249 595 l 1,14,-1
 401 913 l 1,15,-1
 90 896 l 1,16,-1
 90 1103 l 1,17,-1
 401 1086 l 1,0,-1
EndSplineSet
EndChar

StartChar: plus
Encoding: 43 43 14
Width: 827
GlyphClass: 2
Flags: W
LayerCount: 2
Fore
SplineSet
266 544 m 1,0,-1
 39 544 l 1,1,-1
 39 833 l 1,2,-1
 266 833 l 1,3,-1
 266 1073 l 1,4,-1
 567 1073 l 1,5,-1
 567 833 l 1,6,-1
 787 833 l 1,7,-1
 787 544 l 1,8,-1
 567 544 l 1,9,-1
 567 302 l 1,10,-1
 266 302 l 1,11,-1
 266 544 l 1,0,-1
EndSplineSet
EndChar

StartChar: comma
Encoding: 44 44 15
Width: 827
GlyphClass: 2
Flags: W
LayerCount: 2
Fore
SplineSet
424 -17 m 1,0,1
 401 -24 401 -24 381 -25 c 128,-1,2
 361 -26 361 -26 343 -26 c 0,3,4
 292 -26 292 -26 253.5 -8.5 c 128,-1,5
 215 9 215 9 188.5 38 c 128,-1,6
 162 67 162 67 149 104.5 c 128,-1,7
 136 142 136 142 136 182 c 0,8,9
 136 224 136 224 152.5 266 c 128,-1,10
 169 308 169 308 202.5 341.5 c 128,-1,11
 236 375 236 375 286.5 396 c 128,-1,12
 337 417 337 417 405 417 c 0,13,14
 551 417 551 417 626 334.5 c 128,-1,15
 701 252 701 252 701 98 c 0,16,17
 701 -28 701 -28 663.5 -110 c 128,-1,18
 626 -192 626 -192 565.5 -239 c 128,-1,19
 505 -286 505 -286 428 -304.5 c 128,-1,20
 351 -323 351 -323 273 -323 c 0,21,22
 253 -323 253 -323 232 -322 c 128,-1,23
 211 -321 211 -321 191 -319 c 1,24,-1
 190 -115 l 1,25,26
 224 -114 224 -114 265 -108.5 c 128,-1,27
 306 -103 306 -103 341 -92 c 128,-1,28
 376 -81 376 -81 400 -63 c 128,-1,29
 424 -45 424 -45 424 -17 c 1,0,1
EndSplineSet
EndChar

StartChar: hyphen
Encoding: 45 45 16
Width: 930
GlyphClass: 2
Flags: W
LayerCount: 2
Fore
SplineSet
839 847 m 1,0,-1
 839 529 l 1,1,-1
 91 529 l 1,2,-1
 91 847 l 1,3,-1
 839 847 l 1,0,-1
EndSplineSet
EndChar

StartChar: period
Encoding: 46 46 17
Width: 815
GlyphClass: 2
Flags: W
LayerCount: 2
Fore
SplineSet
407 -27 m 0,0,1
 338 -27 338 -27 286 -8 c 128,-1,2
 234 11 234 11 200 42.5 c 128,-1,3
 166 74 166 74 149 114.5 c 128,-1,4
 132 155 132 155 132 197 c 0,5,6
 132 241 132 241 150 283.5 c 128,-1,7
 168 326 168 326 202.5 359.5 c 128,-1,8
 237 393 237 393 288.5 413.5 c 128,-1,9
 340 434 340 434 408 434 c 0,10,11
 475 434 475 434 527 413.5 c 128,-1,12
 579 393 579 393 613.5 359.5 c 128,-1,13
 648 326 648 326 666 283.5 c 128,-1,14
 684 241 684 241 684 198 c 256,15,16
 684 155 684 155 667 114.5 c 128,-1,17
 650 74 650 74 615.5 42.5 c 128,-1,18
 581 11 581 11 529 -8 c 128,-1,19
 477 -27 477 -27 407 -27 c 0,0,1
EndSplineSet
EndChar

StartChar: slash
Encoding: 47 47 18
Width: 993
GlyphClass: 2
Flags: W
LayerCount: 2
Fore
SplineSet
927 1425 m 1,0,-1
 529 0 l 1,1,-1
 72 0 l 1,2,-1
 445 1425 l 1,3,-1
 927 1425 l 1,0,-1
EndSplineSet
EndChar

StartChar: zero
Encoding: 48 48 19
Width: 1619
GlyphClass: 2
Flags: W
LayerCount: 2
Fore
SplineSet
810 -38 m 256,0,1
 685 -38 685 -38 586.5 -7.5 c 128,-1,2
 488 23 488 23 413 76.5 c 128,-1,3
 338 130 338 130 286 203.5 c 128,-1,4
 234 277 234 277 201 362.5 c 128,-1,5
 168 448 168 448 153 543 c 128,-1,6
 138 638 138 638 138 735 c 0,7,8
 138 830 138 830 153 923 c 128,-1,9
 168 1016 168 1016 200.5 1100 c 128,-1,10
 233 1184 233 1184 285 1256 c 128,-1,11
 337 1328 337 1328 411.5 1380.5 c 128,-1,12
 486 1433 486 1433 585 1463 c 128,-1,13
 684 1493 684 1493 810 1493 c 0,14,15
 935 1493 935 1493 1034 1463 c 128,-1,16
 1133 1433 1133 1433 1207.5 1380.5 c 128,-1,17
 1282 1328 1282 1328 1334 1256 c 128,-1,18
 1386 1184 1386 1184 1418.5 1100 c 128,-1,19
 1451 1016 1451 1016 1466 923 c 128,-1,20
 1481 830 1481 830 1481 735 c 0,21,22
 1481 638 1481 638 1466 543 c 128,-1,23
 1451 448 1451 448 1418 362.5 c 128,-1,24
 1385 277 1385 277 1333 203.5 c 128,-1,25
 1281 130 1281 130 1206.5 76.5 c 128,-1,26
 1132 23 1132 23 1033.5 -7.5 c 128,-1,27
 935 -38 935 -38 810 -38 c 256,0,1
810 275 m 0,28,29
 865 275 865 275 906 314 c 128,-1,30
 947 353 947 353 974 417.5 c 128,-1,31
 1001 482 1001 482 1014.5 564.5 c 128,-1,32
 1028 647 1028 647 1028 733 c 0,33,34
 1028 818 1028 818 1014 899.5 c 128,-1,35
 1000 981 1000 981 973 1045 c 128,-1,36
 946 1109 946 1109 905 1148.5 c 128,-1,37
 864 1188 864 1188 810 1188 c 0,38,39
 755 1188 755 1188 714 1148.5 c 128,-1,40
 673 1109 673 1109 645.5 1045 c 128,-1,41
 618 981 618 981 604 899.5 c 128,-1,42
 590 818 590 818 590 733 c 0,43,44
 590 647 590 647 603.5 564.5 c 128,-1,45
 617 482 617 482 644.5 417.5 c 128,-1,46
 672 353 672 353 713 314 c 128,-1,47
 754 275 754 275 810 275 c 0,28,29
EndSplineSet
EndChar

StartChar: one
Encoding: 49 49 20
Width: 934
GlyphClass: 2
Flags: W
LayerCount: 2
Fore
SplineSet
746 0 m 1,0,-1
 285 0 l 1,1,-1
 285 1078 l 1,2,-1
 76 1037 l 1,3,-1
 76 1311 l 1,4,5
 124 1326 124 1326 179 1348 c 0,6,7
 226 1367 226 1367 285.5 1396 c 128,-1,8
 345 1425 345 1425 411 1465 c 1,9,-1
 746 1465 l 1,10,-1
 746 0 l 1,0,-1
EndSplineSet
EndChar

StartChar: two
Encoding: 50 50 21
Width: 1308
GlyphClass: 2
Flags: W
LayerCount: 2
Fore
SplineSet
634 306 m 1,0,-1
 1133 306 l 1,1,-1
 1133 0 l 1,2,-1
 224 0 l 1,3,-1
 183 350 l 1,4,5
 300 440 300 440 396.5 536.5 c 128,-1,6
 493 633 493 633 562.5 726 c 128,-1,7
 632 819 632 819 670.5 902.5 c 128,-1,8
 709 986 709 986 709 1049 c 0,9,10
 709 1086 709 1086 695 1111.5 c 128,-1,11
 681 1137 681 1137 656.5 1153 c 128,-1,12
 632 1169 632 1169 599.5 1175.5 c 128,-1,13
 567 1182 567 1182 530 1182 c 0,14,15
 490 1182 490 1182 447 1175.5 c 128,-1,16
 404 1169 404 1169 364.5 1159 c 128,-1,17
 325 1149 325 1149 291 1137 c 128,-1,18
 257 1125 257 1125 234 1114 c 1,19,-1
 181 1423 l 1,20,21
 294 1465 294 1465 400 1485.5 c 128,-1,22
 506 1506 506 1506 601 1506 c 0,23,24
 744 1506 744 1506 848.5 1470 c 128,-1,25
 953 1434 953 1434 1021.5 1372.5 c 128,-1,26
 1090 1311 1090 1311 1123 1230 c 128,-1,27
 1156 1149 1156 1149 1156 1059 c 0,28,29
 1156 991 1156 991 1134.5 920 c 128,-1,30
 1113 849 1113 849 1075 780 c 128,-1,31
 1037 711 1037 711 986 645 c 128,-1,32
 935 579 935 579 876.5 520 c 128,-1,33
 818 461 818 461 755 410.5 c 128,-1,34
 692 360 692 360 630 323 c 1,35,-1
 634 306 l 1,0,-1
EndSplineSet
EndChar

StartChar: three
Encoding: 51 51 22
Width: 1195
GlyphClass: 2
Flags: W
LayerCount: 2
Fore
SplineSet
257 857 m 1,0,-1
 460 857 l 2,1,2
 505 857 505 857 539 872 c 128,-1,3
 573 887 573 887 595.5 912 c 128,-1,4
 618 937 618 937 629 969.5 c 128,-1,5
 640 1002 640 1002 640 1037 c 0,6,7
 640 1085 640 1085 623.5 1117.5 c 128,-1,8
 607 1150 607 1150 579 1170 c 128,-1,9
 551 1190 551 1190 514.5 1198.5 c 128,-1,10
 478 1207 478 1207 438 1207 c 0,11,12
 353 1207 353 1207 263 1182.5 c 128,-1,13
 173 1158 173 1158 95 1116 c 1,14,-1
 82 1420 l 1,15,16
 181 1463 181 1463 285.5 1483.5 c 128,-1,17
 390 1504 390 1504 519 1504 c 0,18,19
 633 1504 633 1504 719.5 1486.5 c 128,-1,20
 806 1469 806 1469 869.5 1438 c 128,-1,21
 933 1407 933 1407 975 1364.5 c 128,-1,22
 1017 1322 1017 1322 1042 1273 c 128,-1,23
 1067 1224 1067 1224 1077.5 1169.5 c 128,-1,24
 1088 1115 1088 1115 1088 1061 c 0,25,26
 1088 1008 1088 1008 1077 965 c 128,-1,27
 1066 922 1066 922 1048.5 888.5 c 128,-1,28
 1031 855 1031 855 1008.5 830.5 c 128,-1,29
 986 806 986 806 962 788 c 0,30,31
 907 746 907 746 836 729 c 1,32,33
 918 713 918 713 982 671 c 0,34,35
 1009 653 1009 653 1035.5 627.5 c 128,-1,36
 1062 602 1062 602 1082.5 567.5 c 128,-1,37
 1103 533 1103 533 1115.5 488 c 128,-1,38
 1128 443 1128 443 1128 386 c 0,39,40
 1128 306 1128 306 1102 228.5 c 128,-1,41
 1076 151 1076 151 1009 90 c 128,-1,42
 942 29 942 29 825.5 -8.5 c 128,-1,43
 709 -46 709 -46 529 -46 c 0,44,45
 401 -46 401 -46 294 -26 c 128,-1,46
 187 -6 187 -6 88 38 c 1,47,-1
 101 331 l 1,48,49
 138 313 138 313 180.5 298 c 128,-1,50
 223 283 223 283 266.5 272.5 c 128,-1,51
 310 262 310 262 353.5 256 c 128,-1,52
 397 250 397 250 438 250 c 0,53,54
 478 250 478 250 514.5 258.5 c 128,-1,55
 551 267 551 267 579 287 c 128,-1,56
 607 307 607 307 623.5 339.5 c 128,-1,57
 640 372 640 372 640 420 c 0,58,59
 640 456 640 456 629 488.5 c 128,-1,60
 618 521 618 521 595.5 546 c 128,-1,61
 573 571 573 571 539 586 c 128,-1,62
 505 601 505 601 460 601 c 2,63,-1
 257 601 l 1,64,-1
 257 857 l 1,0,-1
EndSplineSet
EndChar

StartChar: four
Encoding: 52 52 23
Width: 1421
GlyphClass: 2
Flags: W
LayerCount: 2
Fore
SplineSet
1087 624 m 1,0,-1
 1319 624 l 1,1,-1
 1319 299 l 1,2,-1
 1087 299 l 1,3,-1
 1087 0 l 1,4,-1
 686 0 l 1,5,-1
 686 299 l 1,6,-1
 83 299 l 1,7,-1
 83 609 l 1,8,-1
 466 1464 l 1,9,-1
 1087 1464 l 1,10,-1
 1087 624 l 1,0,-1
671 1164 m 1,11,-1
 459 624 l 1,12,-1
 686 624 l 1,13,-1
 686 1160 l 1,14,-1
 671 1164 l 1,11,-1
EndSplineSet
EndChar

StartChar: five
Encoding: 53 53 24
Width: 1421
GlyphClass: 2
Flags: W
LayerCount: 2
Fore
SplineSet
174 648 m 1,0,-1
 244 1464 l 1,1,-1
 1180 1464 l 1,2,-1
 1146 1139 l 1,3,-1
 591 1139 l 1,4,5
 590 1131 590 1131 585 1101 c 0,6,7
 580 1075 580 1075 569.5 1025 c 128,-1,8
 559 975 559 975 540 886 c 1,9,10
 566 910 566 910 604 927 c 128,-1,11
 642 944 642 944 684.5 954 c 128,-1,12
 727 964 727 964 770 968.5 c 128,-1,13
 813 973 813 973 851 973 c 0,14,15
 935 973 935 973 1013 939 c 128,-1,16
 1091 905 1091 905 1150.5 840.5 c 128,-1,17
 1210 776 1210 776 1245.5 682 c 128,-1,18
 1281 588 1281 588 1281 468 c 0,19,20
 1281 405 1281 405 1270 342 c 128,-1,21
 1259 279 1259 279 1234 222 c 128,-1,22
 1209 165 1209 165 1167 116 c 128,-1,23
 1125 67 1125 67 1063 31 c 128,-1,24
 1001 -5 1001 -5 916.5 -25.5 c 128,-1,25
 832 -46 832 -46 722 -46 c 0,26,27
 573 -46 573 -46 469 -12 c 128,-1,28
 365 22 365 22 297 82 c 128,-1,29
 229 142 229 142 191.5 224 c 128,-1,30
 154 306 154 306 138 402 c 1,31,-1
 569 402 l 1,32,33
 575 351 575 351 587 321 c 128,-1,34
 599 291 599 291 618 275.5 c 128,-1,35
 637 260 637 260 663.5 255.5 c 128,-1,36
 690 251 690 251 723 251 c 0,37,38
 760 251 760 251 788.5 270 c 128,-1,39
 817 289 817 289 836 320.5 c 128,-1,40
 855 352 855 352 864.5 391 c 128,-1,41
 874 430 874 430 874 471 c 256,42,43
 874 512 874 512 862 550.5 c 128,-1,44
 850 589 850 589 826.5 618.5 c 128,-1,45
 803 648 803 648 767 665.5 c 128,-1,46
 731 683 731 683 683 683 c 0,47,48
 656 683 656 683 626.5 674 c 128,-1,49
 597 665 597 665 568.5 651 c 128,-1,50
 540 637 540 637 513.5 619.5 c 128,-1,51
 487 602 487 602 466 585 c 1,52,-1
 174 648 l 1,0,-1
EndSplineSet
EndChar

StartChar: six
Encoding: 54 54 25
Width: 1474
GlyphClass: 2
Flags: W
LayerCount: 2
Fore
SplineSet
1200 1083 m 1,0,1
 1182 1093 1182 1093 1146.5 1110 c 128,-1,2
 1111 1127 1111 1127 1060 1142.5 c 128,-1,3
 1009 1158 1009 1158 944.5 1169.5 c 128,-1,4
 880 1181 880 1181 804 1181 c 0,5,6
 753 1181 753 1181 712 1166.5 c 128,-1,7
 671 1152 671 1152 642.5 1111.5 c 128,-1,8
 614 1071 614 1071 599 999.5 c 128,-1,9
 584 928 584 928 584 814 c 1,10,11
 651 843 651 843 719 856.5 c 128,-1,12
 787 870 787 870 854 870 c 0,13,14
 951 870 951 870 1040 841.5 c 128,-1,15
 1129 813 1129 813 1196.5 758 c 128,-1,16
 1264 703 1264 703 1304 622.5 c 128,-1,17
 1344 542 1344 542 1344 438 c 0,18,19
 1344 378 1344 378 1332.5 319 c 128,-1,20
 1321 260 1321 260 1294 206.5 c 128,-1,21
 1267 153 1267 153 1221 106.5 c 128,-1,22
 1175 60 1175 60 1106.5 26.5 c 128,-1,23
 1038 -7 1038 -7 943.5 -26.5 c 128,-1,24
 849 -46 849 -46 725 -46 c 0,25,26
 604 -46 604 -46 513.5 -19 c 128,-1,27
 423 8 423 8 359 56.5 c 128,-1,28
 295 105 295 105 253.5 173 c 128,-1,29
 212 241 212 241 188 323.5 c 128,-1,30
 164 406 164 406 155 500 c 128,-1,31
 146 594 146 594 146 695 c 0,32,33
 146 808 146 808 156 911.5 c 128,-1,34
 166 1015 166 1015 192.5 1105 c 128,-1,35
 219 1195 219 1195 265.5 1269 c 128,-1,36
 312 1343 312 1343 385.5 1395.5 c 128,-1,37
 459 1448 459 1448 561.5 1476.5 c 128,-1,38
 664 1505 664 1505 804 1505 c 0,39,40
 927 1505 927 1505 1028 1479 c 128,-1,41
 1129 1453 1129 1453 1213 1412 c 1,42,-1
 1200 1083 l 1,0,1
685 601 m 2,43,44
 660 601 660 601 635.5 601 c 128,-1,45
 611 601 611 601 585 600 c 1,46,47
 585 480 585 480 598 410.5 c 128,-1,48
 611 341 611 341 638 305.5 c 128,-1,49
 665 270 665 270 707 260.5 c 128,-1,50
 749 251 749 251 807 251 c 0,51,52
 844 251 844 251 872 267.5 c 128,-1,53
 900 284 900 284 919 311 c 128,-1,54
 938 338 938 338 947.5 372 c 128,-1,55
 957 406 957 406 957 441 c 0,56,57
 957 472 957 472 946 501 c 128,-1,58
 935 530 935 530 912.5 552.5 c 128,-1,59
 890 575 890 575 856 588 c 128,-1,60
 822 601 822 601 777 601 c 2,61,-1
 685 601 l 2,43,44
EndSplineSet
EndChar

StartChar: seven
Encoding: 55 55 26
Width: 1127
GlyphClass: 2
Flags: W
LayerCount: 2
Fore
SplineSet
1025 1142 m 1,0,-1
 712 0 l 1,1,-1
 230 0 l 1,2,-1
 564 1140 l 1,3,-1
 148 1140 l 1,4,-1
 148 1465 l 1,5,-1
 939 1465 l 1,6,-1
 1025 1142 l 1,0,-1
EndSplineSet
EndChar

StartChar: eight
Encoding: 56 56 27
Width: 1594
GlyphClass: 2
Flags: W
LayerCount: 2
Fore
SplineSet
801 1181 m 256,0,1
 739 1181 739 1181 705.5 1152 c 128,-1,2
 672 1123 672 1123 672 1083 c 0,3,4
 672 1041 672 1041 697.5 1011 c 128,-1,5
 723 981 723 981 766.5 958.5 c 128,-1,6
 810 936 810 936 867 917.5 c 128,-1,7
 924 899 924 899 986 880 c 0,8,9
 1034 865 1034 865 1088 846 c 128,-1,10
 1142 827 1142 827 1195 800.5 c 128,-1,11
 1248 774 1248 774 1296.5 739 c 128,-1,12
 1345 704 1345 704 1381.5 658.5 c 128,-1,13
 1418 613 1418 613 1440 555.5 c 128,-1,14
 1462 498 1462 498 1462 427 c 0,15,16
 1462 369 1462 369 1449.5 311 c 128,-1,17
 1437 253 1437 253 1407.5 200.5 c 128,-1,18
 1378 148 1378 148 1328.5 103 c 128,-1,19
 1279 58 1279 58 1205 25 c 128,-1,20
 1131 -8 1131 -8 1029 -27 c 128,-1,21
 927 -46 927 -46 793 -46 c 0,22,23
 629 -46 629 -46 505 -10 c 128,-1,24
 381 26 381 26 297 85 c 128,-1,25
 213 144 213 144 170.5 218 c 128,-1,26
 128 292 128 292 128 369 c 0,27,28
 128 429 128 429 154.5 486.5 c 128,-1,29
 181 544 181 544 235 592 c 128,-1,30
 289 640 289 640 370.5 675.5 c 128,-1,31
 452 711 452 711 562 727 c 1,32,-1
 804 729 l 1,33,34
 760 695 760 695 721 664 c 128,-1,35
 682 633 682 633 653.5 598.5 c 128,-1,36
 625 564 625 564 608.5 522.5 c 128,-1,37
 592 481 592 481 592 426 c 0,38,39
 592 389 592 389 604 365 c 128,-1,40
 616 341 616 341 640.5 327 c 128,-1,41
 665 313 665 313 703 307.5 c 128,-1,42
 741 302 741 302 794 302 c 0,43,44
 846 302 846 302 884 307.5 c 128,-1,45
 922 313 922 313 947 327 c 128,-1,46
 972 341 972 341 984 365 c 128,-1,47
 996 389 996 389 996 426 c 0,48,49
 996 454 996 454 976.5 476 c 128,-1,50
 957 498 957 498 923 516 c 128,-1,51
 889 534 889 534 843 550.5 c 128,-1,52
 797 567 797 567 743 585 c 0,53,54
 694 602 694 602 635.5 623 c 128,-1,55
 577 644 577 644 518.5 672 c 128,-1,56
 460 700 460 700 405.5 737 c 128,-1,57
 351 774 351 774 309 823.5 c 128,-1,58
 267 873 267 873 241.5 936.5 c 128,-1,59
 216 1000 216 1000 216 1081 c 0,60,61
 216 1165 216 1165 254.5 1242 c 128,-1,62
 293 1319 293 1319 367.5 1377.5 c 128,-1,63
 442 1436 442 1436 551 1470.5 c 128,-1,64
 660 1505 660 1505 801 1505 c 0,65,66
 940 1505 940 1505 1046.5 1471 c 128,-1,67
 1153 1437 1153 1437 1225 1382 c 128,-1,68
 1297 1327 1297 1327 1333.5 1257.5 c 128,-1,69
 1370 1188 1370 1188 1370 1117 c 0,70,71
 1370 1056 1370 1056 1342.5 998.5 c 128,-1,72
 1315 941 1315 941 1259 895 c 128,-1,73
 1203 849 1203 849 1118 818 c 128,-1,74
 1033 787 1033 787 919 780 c 1,75,-1
 677 778 l 1,76,77
 728 803 728 803 774 829 c 128,-1,78
 820 855 820 855 854.5 890 c 128,-1,79
 889 925 889 925 909.5 971.5 c 128,-1,80
 930 1018 930 1018 930 1083 c 0,81,82
 930 1123 930 1123 896.5 1152 c 128,-1,83
 863 1181 863 1181 801 1181 c 256,0,1
EndSplineSet
EndChar

StartChar: nine
Encoding: 57 57 28
Width: 1481
GlyphClass: 2
Flags: W
LayerCount: 2
Fore
SplineSet
242 385 m 1,0,1
 261 374 261 374 298.5 355.5 c 128,-1,2
 336 337 336 337 389.5 320 c 128,-1,3
 443 303 443 303 511 290.5 c 128,-1,4
 579 278 579 278 659 278 c 0,5,6
 714 278 714 278 758.5 291.5 c 128,-1,7
 803 305 803 305 834.5 343 c 128,-1,8
 866 381 866 381 882.5 448.5 c 128,-1,9
 899 516 899 516 899 624 c 1,10,11
 813 587 813 587 722.5 574.5 c 128,-1,12
 632 562 632 562 547.5 573 c 128,-1,13
 463 584 463 584 388.5 617 c 128,-1,14
 314 650 314 650 258.5 704 c 128,-1,15
 203 758 203 758 170.5 832.5 c 128,-1,16
 138 907 138 907 138 1000 c 0,17,18
 138 1062 138 1062 149.5 1123.5 c 128,-1,19
 161 1185 161 1185 188.5 1241.5 c 128,-1,20
 216 1298 216 1298 261.5 1346 c 128,-1,21
 307 1394 307 1394 376 1429.5 c 128,-1,22
 445 1465 445 1465 539 1485 c 128,-1,23
 633 1505 633 1505 757 1505 c 0,24,25
 878 1505 878 1505 968.5 1478 c 128,-1,26
 1059 1451 1059 1451 1123 1402 c 128,-1,27
 1187 1353 1187 1353 1228.5 1285 c 128,-1,28
 1270 1217 1270 1217 1294 1134.5 c 128,-1,29
 1318 1052 1318 1052 1327 958 c 128,-1,30
 1336 864 1336 864 1336 764 c 0,31,32
 1336 651 1336 651 1325.5 547.5 c 128,-1,33
 1315 444 1315 444 1287.5 354 c 128,-1,34
 1260 264 1260 264 1212 190 c 128,-1,35
 1164 116 1164 116 1089 63.5 c 128,-1,36
 1014 11 1014 11 908 -17.5 c 128,-1,37
 802 -46 802 -46 659 -46 c 0,38,39
 530 -46 530 -46 423.5 -17.5 c 128,-1,40
 317 11 317 11 229 56 c 1,41,-1
 242 385 l 1,0,1
706 837 m 256,42,43
 751 837 751 837 798 836.5 c 128,-1,44
 845 836 845 836 898 838 c 1,45,46
 898 965 898 965 885 1038.5 c 128,-1,47
 872 1112 872 1112 844.5 1149.5 c 128,-1,48
 817 1187 817 1187 775 1197 c 128,-1,49
 733 1207 733 1207 676 1207 c 0,50,51
 639 1207 639 1207 611 1189 c 128,-1,52
 583 1171 583 1171 564 1141 c 128,-1,53
 545 1111 545 1111 535 1073.5 c 128,-1,54
 525 1036 525 1036 525 997 c 0,55,56
 525 965 525 965 536.5 936.5 c 128,-1,57
 548 908 548 908 570.5 885.5 c 128,-1,58
 593 863 593 863 627 850 c 128,-1,59
 661 837 661 837 706 837 c 256,42,43
EndSplineSet
EndChar

StartChar: colon
Encoding: 58 58 29
Width: 838
GlyphClass: 2
Flags: W
LayerCount: 2
Fore
SplineSet
418 665 m 0,0,1
 348 665 348 665 296 684.5 c 128,-1,2
 244 704 244 704 209.5 736.5 c 128,-1,3
 175 769 175 769 158 810 c 128,-1,4
 141 851 141 851 141 895 c 0,5,6
 141 940 141 940 159 983.5 c 128,-1,7
 177 1027 177 1027 212 1061.5 c 128,-1,8
 247 1096 247 1096 299 1117 c 128,-1,9
 351 1138 351 1138 419 1138 c 256,10,11
 487 1138 487 1138 539 1117 c 128,-1,12
 591 1096 591 1096 626.5 1061.5 c 128,-1,13
 662 1027 662 1027 680 984 c 128,-1,14
 698 941 698 941 698 896 c 0,15,16
 698 852 698 852 681 810.5 c 128,-1,17
 664 769 664 769 629 736.5 c 128,-1,18
 594 704 594 704 541.5 684.5 c 128,-1,19
 489 665 489 665 418 665 c 0,0,1
418 0 m 0,20,21
 348 0 348 0 296 19.5 c 128,-1,22
 244 39 244 39 209.5 71.5 c 128,-1,23
 175 104 175 104 158 145 c 128,-1,24
 141 186 141 186 141 230 c 0,25,26
 141 275 141 275 159 318.5 c 128,-1,27
 177 362 177 362 212 396.5 c 128,-1,28
 247 431 247 431 299 452 c 128,-1,29
 351 473 351 473 419 473 c 256,30,31
 487 473 487 473 539 452 c 128,-1,32
 591 431 591 431 626.5 396.5 c 128,-1,33
 662 362 662 362 680 319 c 128,-1,34
 698 276 698 276 698 231 c 0,35,36
 698 187 698 187 681 145.5 c 128,-1,37
 664 104 664 104 629 71.5 c 128,-1,38
 594 39 594 39 541.5 19.5 c 128,-1,39
 489 0 489 0 418 0 c 0,20,21
EndSplineSet
EndChar

StartChar: semicolon
Encoding: 59 59 30
Width: 841
GlyphClass: 2
Flags: W
LayerCount: 2
Fore
SplineSet
418 665 m 0,0,1
 348 665 348 665 296 684.5 c 128,-1,2
 244 704 244 704 209.5 736.5 c 128,-1,3
 175 769 175 769 158 810 c 128,-1,4
 141 851 141 851 141 895 c 0,5,6
 141 940 141 940 159 983.5 c 128,-1,7
 177 1027 177 1027 212 1061.5 c 128,-1,8
 247 1096 247 1096 299 1117 c 128,-1,9
 351 1138 351 1138 419 1138 c 256,10,11
 487 1138 487 1138 539 1117 c 128,-1,12
 591 1096 591 1096 626.5 1061.5 c 128,-1,13
 662 1027 662 1027 680 984 c 128,-1,14
 698 941 698 941 698 896 c 0,15,16
 698 852 698 852 681 810.5 c 128,-1,17
 664 769 664 769 629 736.5 c 128,-1,18
 594 704 594 704 541.5 684.5 c 128,-1,19
 489 665 489 665 418 665 c 0,0,1
434 28 m 1,20,21
 411 20 411 20 390.5 19 c 128,-1,22
 370 18 370 18 352 18 c 0,23,24
 300 18 300 18 261 36 c 128,-1,25
 222 54 222 54 195.5 84 c 128,-1,26
 169 114 169 114 156 152.5 c 128,-1,27
 143 191 143 191 143 232 c 0,28,29
 143 275 143 275 159.5 318 c 128,-1,30
 176 361 176 361 210 395.5 c 128,-1,31
 244 430 244 430 294.5 451.5 c 128,-1,32
 345 473 345 473 414 473 c 0,33,34
 562 473 562 473 637.5 388.5 c 128,-1,35
 713 304 713 304 713 146 c 0,36,37
 713 16 713 16 675 -67.5 c 128,-1,38
 637 -151 637 -151 576 -199.5 c 128,-1,39
 515 -248 515 -248 437.5 -267 c 128,-1,40
 360 -286 360 -286 281 -286 c 0,41,42
 261 -286 261 -286 240 -285 c 128,-1,43
 219 -284 219 -284 198 -282 c 1,44,-1
 197 -73 l 1,45,46
 232 -72 232 -72 273 -66.5 c 128,-1,47
 314 -61 314 -61 350 -49.5 c 128,-1,48
 386 -38 386 -38 410 -19.5 c 128,-1,49
 434 -1 434 -1 434 28 c 1,20,21
EndSplineSet
EndChar

StartChar: question
Encoding: 63 63 34
Width: 1421
GlyphClass: 2
Flags: W
LayerCount: 2
Fore
SplineSet
347 777 m 1,0,1
 458 787 458 787 538 802.5 c 128,-1,2
 618 818 618 818 672.5 838.5 c 128,-1,3
 727 859 727 859 759.5 883 c 128,-1,4
 792 907 792 907 809.5 933.5 c 128,-1,5
 827 960 827 960 832.5 988.5 c 128,-1,6
 838 1017 838 1017 838 1045 c 0,7,8
 838 1081 838 1081 822.5 1109 c 128,-1,9
 807 1137 807 1137 782 1156.5 c 128,-1,10
 757 1176 757 1176 725.5 1186.5 c 128,-1,11
 694 1197 694 1197 661 1197 c 0,12,13
 631 1197 631 1197 602.5 1188 c 128,-1,14
 574 1179 574 1179 551 1160 c 128,-1,15
 528 1141 528 1141 513.5 1111.5 c 128,-1,16
 499 1082 499 1082 498 1042 c 1,17,-1
 159 1042 l 1,18,19
 159 1138 159 1138 190.5 1220 c 128,-1,20
 222 1302 222 1302 287 1362 c 128,-1,21
 352 1422 352 1422 450 1456 c 128,-1,22
 548 1490 548 1490 682 1490 c 0,23,24
 811 1490 811 1490 913 1451 c 128,-1,25
 1015 1412 1015 1412 1085 1349 c 128,-1,26
 1155 1286 1155 1286 1192 1206 c 128,-1,27
 1229 1126 1229 1126 1229 1044 c 0,28,29
 1229 966 1229 966 1200 892 c 128,-1,30
 1171 818 1171 818 1110.5 757.5 c 128,-1,31
 1050 697 1050 697 957 655.5 c 128,-1,32
 864 614 864 614 735 602 c 1,33,-1
 745 446 l 1,34,-1
 407 446 l 1,35,-1
 347 777 l 1,0,1
596 -28 m 0,36,37
 531 -28 531 -28 482.5 -12.5 c 128,-1,38
 434 3 434 3 402 29 c 128,-1,39
 370 55 370 55 354 87.5 c 128,-1,40
 338 120 338 120 338 155 c 0,41,42
 338 191 338 191 354.5 226 c 128,-1,43
 371 261 371 261 404 288.5 c 128,-1,44
 437 316 437 316 485 333 c 128,-1,45
 533 350 533 350 596 350 c 256,46,47
 659 350 659 350 707 333 c 128,-1,48
 755 316 755 316 788 288.5 c 128,-1,49
 821 261 821 261 837.5 226.5 c 128,-1,50
 854 192 854 192 854 156 c 0,51,52
 854 121 854 121 838.5 88 c 128,-1,53
 823 55 823 55 791 29 c 128,-1,54
 759 3 759 3 710.5 -12.5 c 128,-1,55
 662 -28 662 -28 596 -28 c 0,36,37
EndSplineSet
EndChar

StartChar: at
Encoding: 64 64 35
Width: 2433
GlyphClass: 2
Flags: W
LayerCount: 2
Fore
SplineSet
1789 390 m 2,0,1
 1789 339 1789 339 1812 304.5 c 128,-1,2
 1835 270 1835 270 1868 270 c 0,3,4
 1905 270 1905 270 1927.5 304.5 c 128,-1,5
 1950 339 1950 339 1962 396 c 128,-1,6
 1974 453 1974 453 1978 526 c 128,-1,7
 1982 599 1982 599 1982 676 c 0,8,9
 1982 741 1982 741 1968.5 805 c 128,-1,10
 1955 869 1955 869 1922.5 927 c 128,-1,11
 1890 985 1890 985 1837 1035 c 128,-1,12
 1784 1085 1784 1085 1704.5 1121.5 c 128,-1,13
 1625 1158 1625 1158 1517 1179 c 128,-1,14
 1409 1200 1409 1200 1267 1200 c 0,15,16
 1173 1200 1173 1200 1084.5 1179 c 128,-1,17
 996 1158 996 1158 918 1118.5 c 128,-1,18
 840 1079 840 1079 775.5 1024 c 128,-1,19
 711 969 711 969 664.5 901.5 c 128,-1,20
 618 834 618 834 592 755 c 128,-1,21
 566 676 566 676 566 590 c 0,22,23
 566 433 566 433 612.5 312.5 c 128,-1,24
 659 192 659 192 760.5 110.5 c 128,-1,25
 862 29 862 29 1023 -13 c 128,-1,26
 1184 -55 1184 -55 1413 -55 c 1,27,-1
 1435 -200 l 1,28,29
 1356 -228 1356 -228 1285.5 -240.5 c 128,-1,30
 1215 -253 1215 -253 1151 -253 c 0,31,32
 976 -253 976 -253 832 -222.5 c 128,-1,33
 688 -192 688 -192 575 -138 c 128,-1,34
 462 -84 462 -84 379 -8.5 c 128,-1,35
 296 67 296 67 241.5 156.5 c 128,-1,36
 187 246 187 246 160.5 347.5 c 128,-1,37
 134 449 134 449 134 556 c 0,38,39
 134 684 134 684 169 805.5 c 128,-1,40
 204 927 204 927 271.5 1033.5 c 128,-1,41
 339 1140 339 1140 438 1228.5 c 128,-1,42
 537 1317 537 1317 665 1380.5 c 128,-1,43
 793 1444 793 1444 948.5 1479.5 c 128,-1,44
 1104 1515 1104 1515 1286 1515 c 0,45,46
 1419 1515 1419 1515 1547 1494.5 c 128,-1,47
 1675 1474 1675 1474 1790 1430 c 128,-1,48
 1905 1386 1905 1386 2002 1317.5 c 128,-1,49
 2099 1249 2099 1249 2169.5 1152 c 128,-1,50
 2240 1055 2240 1055 2280 928.5 c 128,-1,51
 2320 802 2320 802 2320 643 c 0,52,53
 2320 532 2320 532 2298.5 444 c 128,-1,54
 2277 356 2277 356 2240 289 c 128,-1,55
 2203 222 2203 222 2153 174.5 c 128,-1,56
 2103 127 2103 127 2045.5 96.5 c 128,-1,57
 1988 66 1988 66 1925.5 52 c 128,-1,58
 1863 38 1863 38 1801 38 c 0,59,60
 1737 38 1737 38 1688 52.5 c 128,-1,61
 1639 67 1639 67 1600.5 95.5 c 128,-1,62
 1562 124 1562 124 1532 167.5 c 128,-1,63
 1502 211 1502 211 1477 269 c 1,64,65
 1461 236 1461 236 1430 211 c 128,-1,66
 1399 186 1399 186 1360 169 c 128,-1,67
 1321 152 1321 152 1277 143.5 c 128,-1,68
 1233 135 1233 135 1190 135 c 0,69,70
 1073 135 1073 135 986.5 171.5 c 128,-1,71
 900 208 900 208 843.5 268.5 c 128,-1,72
 787 329 787 329 759 407 c 128,-1,73
 731 485 731 485 731 568 c 256,74,75
 731 651 731 651 755.5 733 c 128,-1,76
 780 815 780 815 828.5 880 c 128,-1,77
 877 945 877 945 948.5 985.5 c 128,-1,78
 1020 1026 1020 1026 1115 1026 c 0,79,80
 1169 1026 1169 1026 1220.5 1015 c 128,-1,81
 1272 1004 1272 1004 1314.5 984.5 c 128,-1,82
 1357 965 1357 965 1389 939.5 c 128,-1,83
 1421 914 1421 914 1437 886 c 1,84,-1
 1463 996 l 1,85,-1
 1789 996 l 1,86,-1
 1789 390 l 2,0,1
1279 366 m 0,87,88
 1309 366 1309 366 1337.5 377.5 c 128,-1,89
 1366 389 1366 389 1388 403 c 0,90,91
 1414 419 1414 419 1437 440 c 1,92,-1
 1437 727 l 1,93,94
 1389 765 1389 765 1348.5 781.5 c 128,-1,95
 1308 798 1308 798 1270 798 c 0,96,97
 1219 798 1219 798 1183.5 778.5 c 128,-1,98
 1148 759 1148 759 1125.5 727 c 128,-1,99
 1103 695 1103 695 1092.5 654.5 c 128,-1,100
 1082 614 1082 614 1082 572 c 0,101,102
 1082 533 1082 533 1096 495.5 c 128,-1,103
 1110 458 1110 458 1136 429.5 c 128,-1,104
 1162 401 1162 401 1198.5 383.5 c 128,-1,105
 1235 366 1235 366 1279 366 c 0,87,88
EndSplineSet
EndChar

StartChar: A
Encoding: 65 65 36
Width: 1605
GlyphClass: 2
Flags: W
LayerCount: 2
Fore
SplineSet
1495 0 m 1,0,-1
 955 0 l 1,1,-1
 889 309 l 1,2,-1
 534 309 l 1,3,-1
 470 0 l 1,4,-1
 112 0 l 1,5,-1
 477 1465 l 1,6,-1
 1119 1465 l 1,7,-1
 1495 0 l 1,0,-1
716 1178 m 1,8,-1
 578 548 l 1,9,-1
 866 548 l 1,10,-1
 747 1178 l 1,11,-1
 716 1178 l 1,8,-1
EndSplineSet
EndChar

StartChar: B
Encoding: 66 66 37
Width: 1564
GlyphClass: 2
Flags: W
LayerCount: 2
Fore
SplineSet
174 1465 m 1,0,-1
 675 1465 l 2,1,2
 736 1465 736 1465 808.5 1461.5 c 128,-1,3
 881 1458 881 1458 954.5 1446 c 128,-1,4
 1028 1434 1028 1434 1097 1410 c 128,-1,5
 1166 1386 1166 1386 1219 1345.5 c 128,-1,6
 1272 1305 1272 1305 1304 1244.5 c 128,-1,7
 1336 1184 1336 1184 1336 1098 c 0,8,9
 1336 1051 1336 1051 1324 1003.5 c 128,-1,10
 1312 956 1312 956 1282.5 914 c 128,-1,11
 1253 872 1253 872 1204 839.5 c 128,-1,12
 1155 807 1155 807 1081 791 c 1,13,14
 1165 786 1165 786 1233.5 754.5 c 128,-1,15
 1302 723 1302 723 1350.5 675 c 128,-1,16
 1399 627 1399 627 1425 567 c 128,-1,17
 1451 507 1451 507 1451 445 c 0,18,19
 1451 391 1451 391 1433 337.5 c 128,-1,20
 1415 284 1415 284 1376 234.5 c 128,-1,21
 1337 185 1337 185 1275 142 c 128,-1,22
 1213 99 1213 99 1126.5 67.5 c 128,-1,23
 1040 36 1040 36 926.5 18 c 128,-1,24
 813 0 813 0 670 0 c 2,25,-1
 174 0 l 1,26,-1
 174 1465 l 1,0,-1
640 277 m 1,27,28
 658 276 658 276 681.5 275 c 128,-1,29
 705 274 705 274 729 273.5 c 128,-1,30
 753 273 753 273 774.5 272.5 c 128,-1,31
 796 272 796 272 809 272 c 0,32,33
 852 272 852 272 886 284.5 c 128,-1,34
 920 297 920 297 943 319.5 c 128,-1,35
 966 342 966 342 978.5 373 c 128,-1,36
 991 404 991 404 991 441 c 0,37,38
 991 474 991 474 975.5 502.5 c 128,-1,39
 960 531 960 531 930 552 c 128,-1,40
 900 573 900 573 856 585 c 128,-1,41
 812 597 812 597 755 597 c 0,42,43
 746 597 746 597 730.5 597 c 128,-1,44
 715 597 715 597 698.5 596.5 c 128,-1,45
 682 596 682 596 666 595.5 c 128,-1,46
 650 595 650 595 640 594 c 1,47,-1
 640 277 l 1,27,28
768 828 m 2,48,49
 815 828 815 828 852 843 c 128,-1,50
 889 858 889 858 914.5 882 c 128,-1,51
 940 906 940 906 953 936.5 c 128,-1,52
 966 967 966 967 966 999 c 0,53,54
 966 1079 966 1079 906 1126.5 c 128,-1,55
 846 1174 846 1174 736 1174 c 0,56,57
 728 1174 728 1174 715 1173.5 c 128,-1,58
 702 1173 702 1173 688.5 1172 c 128,-1,59
 675 1171 675 1171 662 1170 c 128,-1,60
 649 1169 649 1169 640 1168 c 1,61,-1
 640 828 l 1,62,-1
 768 828 l 2,48,49
EndSplineSet
EndChar

StartChar: C
Encoding: 67 67 38
Width: 1479
GlyphClass: 2
Flags: W
LayerCount: 2
Fore
SplineSet
886 -40 m 0,0,1
 781 -40 781 -40 683 -15.5 c 128,-1,2
 585 9 585 9 499 55.5 c 128,-1,3
 413 102 413 102 341.5 169.5 c 128,-1,4
 270 237 270 237 219 323 c 128,-1,5
 168 409 168 409 139.5 512.5 c 128,-1,6
 111 616 111 616 111 735 c 0,7,8
 111 889 111 889 165.5 1027.5 c 128,-1,9
 220 1166 220 1166 320.5 1271 c 128,-1,10
 421 1376 421 1376 562 1437.5 c 128,-1,11
 703 1499 703 1499 877 1499 c 0,12,13
 969 1499 969 1499 1068.5 1481.5 c 128,-1,14
 1168 1464 1168 1464 1275 1426 c 1,15,-1
 1258 1081 l 1,16,17
 1167 1119 1167 1119 1088 1137 c 128,-1,18
 1009 1155 1009 1155 940 1155 c 0,19,20
 849 1155 849 1155 778 1124 c 128,-1,21
 707 1093 707 1093 658.5 1037.5 c 128,-1,22
 610 982 610 982 584.5 904 c 128,-1,23
 559 826 559 826 559 733 c 0,24,25
 559 634 559 634 585.5 555.5 c 128,-1,26
 612 477 612 477 661 422.5 c 128,-1,27
 710 368 710 368 778 339.5 c 128,-1,28
 846 311 846 311 930 311 c 0,29,30
 1005 311 1005 311 1089 333.5 c 128,-1,31
 1173 356 1173 356 1266 406 c 1,32,-1
 1337 76 l 1,33,34
 1224 16 1224 16 1110 -12 c 128,-1,35
 996 -40 996 -40 886 -40 c 0,0,1
EndSplineSet
EndChar

StartChar: D
Encoding: 68 68 39
Width: 1592
GlyphClass: 2
Flags: W
LayerCount: 2
Fore
SplineSet
176 0 m 1,0,-1
 176 1465 l 1,1,-1
 673 1465 l 2,2,3
 854 1465 854 1465 1001.5 1419 c 128,-1,4
 1149 1373 1149 1373 1253.5 1281 c 128,-1,5
 1358 1189 1358 1189 1415 1051 c 128,-1,6
 1472 913 1472 913 1472 730 c 0,7,8
 1472 592 1472 592 1442.5 484.5 c 128,-1,9
 1413 377 1413 377 1360.5 296 c 128,-1,10
 1308 215 1308 215 1234 158.5 c 128,-1,11
 1160 102 1160 102 1070.5 67 c 128,-1,12
 981 32 981 32 879.5 16 c 128,-1,13
 778 0 778 0 669 0 c 2,14,-1
 176 0 l 1,0,-1
642 327 m 1,15,-1
 679 327 l 2,16,17
 756 327 756 327 816.5 342 c 128,-1,18
 877 357 877 357 919 401.5 c 128,-1,19
 961 446 961 446 983 526 c 128,-1,20
 1005 606 1005 606 1005 737 c 0,21,22
 1005 856 1005 856 985.5 934.5 c 128,-1,23
 966 1013 966 1013 926.5 1059 c 128,-1,24
 887 1105 887 1105 827.5 1123.5 c 128,-1,25
 768 1142 768 1142 688 1142 c 2,26,-1
 642 1142 l 1,27,-1
 642 327 l 1,15,-1
EndSplineSet
EndChar

StartChar: E
Encoding: 69 69 40
Width: 1380
GlyphClass: 2
Flags: W
LayerCount: 2
Fore
SplineSet
177 1465 m 1,0,-1
 1178 1465 l 1,1,-1
 1178 1141 l 1,2,-1
 643 1141 l 1,3,-1
 643 873 l 1,4,-1
 1080 873 l 1,5,-1
 1080 601 l 1,6,-1
 643 601 l 1,7,-1
 643 307 l 1,8,-1
 1213 307 l 1,9,-1
 1213 0 l 1,10,-1
 177 0 l 1,11,-1
 177 1465 l 1,0,-1
EndSplineSet
EndChar

StartChar: F
Encoding: 70 70 41
Width: 1209
GlyphClass: 2
Flags: W
LayerCount: 2
Fore
SplineSet
177 1465 m 1,0,-1
 1140 1465 l 1,1,-1
 1140 1140 l 1,2,-1
 643 1140 l 1,3,-1
 643 812 l 1,4,-1
 1079 812 l 1,5,-1
 1079 537 l 1,6,-1
 643 537 l 1,7,-1
 643 0 l 1,8,-1
 177 0 l 1,9,-1
 177 1465 l 1,0,-1
EndSplineSet
EndChar

StartChar: G
Encoding: 71 71 42
Width: 1593
GlyphClass: 2
Flags: W
LayerCount: 2
Fore
SplineSet
885 -40 m 0,0,1
 718 -40 718 -40 577 17 c 128,-1,2
 436 74 436 74 333 176.5 c 128,-1,3
 230 279 230 279 172.5 421.5 c 128,-1,4
 115 564 115 564 115 735 c 0,5,6
 115 837 115 837 140.5 933.5 c 128,-1,7
 166 1030 166 1030 214.5 1115 c 128,-1,8
 263 1200 263 1200 333 1270.5 c 128,-1,9
 403 1341 403 1341 491.5 1392 c 128,-1,10
 580 1443 580 1443 686 1471 c 128,-1,11
 792 1499 792 1499 913 1499 c 0,12,13
 1009 1499 1009 1499 1112 1481.5 c 128,-1,14
 1215 1464 1215 1464 1324 1426 c 1,15,-1
 1307 1081 l 1,16,17
 1213 1119 1213 1119 1129.5 1137 c 128,-1,18
 1046 1155 1046 1155 973 1155 c 0,19,20
 880 1155 880 1155 807 1124 c 128,-1,21
 734 1093 734 1093 684 1037.5 c 128,-1,22
 634 982 634 982 608 904 c 128,-1,23
 582 826 582 826 582 733 c 0,24,25
 582 631 582 631 606.5 548 c 128,-1,26
 631 465 631 465 679.5 407 c 128,-1,27
 728 349 728 349 800 317.5 c 128,-1,28
 872 286 872 286 966 286 c 0,29,30
 989 286 989 286 1014 286.5 c 128,-1,31
 1039 287 1039 287 1065 291 c 1,32,-1
 1065 575 l 1,33,-1
 836 575 l 1,34,-1
 836 847 l 1,35,-1
 1449 847 l 1,36,-1
 1449 127 l 1,37,38
 1376 85 1376 85 1303.5 53.5 c 128,-1,39
 1231 22 1231 22 1161 1 c 0,40,41
 1089 -20 1089 -20 1020 -30 c 128,-1,42
 951 -40 951 -40 885 -40 c 0,0,1
EndSplineSet
EndChar

StartChar: H
Encoding: 72 72 43
Width: 1676
GlyphClass: 2
Flags: W
LayerCount: 2
Fore
SplineSet
189 1465 m 1,0,-1
 655 1465 l 1,1,-1
 655 856 l 1,2,-1
 1021 856 l 1,3,-1
 1021 1462 l 1,4,-1
 1488 1462 l 1,5,-1
 1488 0 l 1,6,-1
 1021 0 l 1,7,-1
 1021 579 l 1,8,-1
 655 579 l 1,9,-1
 655 0 l 1,10,-1
 189 0 l 1,11,-1
 189 1465 l 1,0,-1
EndSplineSet
EndChar

StartChar: I
Encoding: 73 73 44
Width: 821
GlyphClass: 2
Flags: W
LayerCount: 2
Fore
SplineSet
178 1465 m 1,0,-1
 644 1465 l 1,1,-1
 644 0 l 1,2,-1
 178 0 l 1,3,-1
 178 1465 l 1,0,-1
EndSplineSet
EndChar

StartChar: J
Encoding: 74 74 45
Width: 1083
GlyphClass: 2
Flags: W
LayerCount: 2
Fore
SplineSet
380 -40 m 0,0,1
 288 -40 288 -40 204.5 -14 c 128,-1,2
 121 12 121 12 61 61 c 1,3,-1
 61 352 l 1,4,5
 128 330 128 330 181 320.5 c 128,-1,6
 234 311 234 311 277 311 c 0,7,8
 344 311 344 311 381 334.5 c 128,-1,9
 418 358 418 358 435 393.5 c 128,-1,10
 452 429 452 429 455 471 c 128,-1,11
 458 513 458 513 458 549 c 2,12,-1
 458 1465 l 1,13,-1
 924 1465 l 1,14,-1
 924 440 l 2,15,16
 924 317 924 317 876.5 227 c 128,-1,17
 829 137 829 137 752.5 77.5 c 128,-1,18
 676 18 676 18 578 -11 c 128,-1,19
 480 -40 480 -40 380 -40 c 0,0,1
EndSplineSet
EndChar

StartChar: K
Encoding: 75 75 46
Width: 1651
GlyphClass: 2
Flags: W
LayerCount: 2
Fore
SplineSet
645 646 m 1,0,-1
 645 0 l 1,1,-1
 179 0 l 1,2,-1
 179 1465 l 1,3,-1
 645 1465 l 1,4,-1
 645 921 l 1,5,-1
 672 921 l 1,6,-1
 1024 1465 l 1,7,-1
 1483 1465 l 1,8,-1
 1087 788 l 1,9,-1
 1513 -1 l 1,10,-1
 928 -1 l 1,11,-1
 664 646 l 1,12,-1
 645 646 l 1,0,-1
EndSplineSet
EndChar

StartChar: L
Encoding: 76 76 47
Width: 1223
GlyphClass: 2
Flags: W
LayerCount: 2
Fore
SplineSet
180 1465 m 1,0,-1
 646 1465 l 1,1,-1
 646 306 l 1,2,-1
 1170 306 l 1,3,-1
 1170 0 l 1,4,-1
 180 0 l 1,5,-1
 180 1465 l 1,0,-1
EndSplineSet
EndChar

StartChar: M
Encoding: 77 77 48
Width: 1942
GlyphClass: 2
Flags: W
LayerCount: 2
Fore
SplineSet
180 1465 m 1,0,-1
 621 1465 l 1,1,-1
 977 875 l 1,2,-1
 1351 1465 l 1,3,-1
 1762 1465 l 1,4,-1
 1762 0 l 1,5,-1
 1291 0 l 1,6,-1
 1291 769 l 1,7,-1
 945 214 l 1,8,-1
 847 214 l 1,9,-1
 505 769 l 1,10,-1
 505 0 l 1,11,-1
 180 0 l 1,12,-1
 180 1465 l 1,0,-1
EndSplineSet
EndChar

StartChar: N
Encoding: 78 78 49
Width: 1568
GlyphClass: 2
Flags: W
LayerCount: 2
Fore
SplineSet
182 1465 m 1,0,-1
 619 1465 l 1,1,-1
 1065 724 l 1,2,-1
 1065 1465 l 1,3,-1
 1387 1465 l 1,4,-1
 1387 0 l 1,5,-1
 958 0 l 1,6,-1
 505 741 l 1,7,-1
 505 0 l 1,8,-1
 182 0 l 1,9,-1
 182 1465 l 1,0,-1
EndSplineSet
EndChar

StartChar: O
Encoding: 79 79 50
Width: 1705
GlyphClass: 2
Flags: W
LayerCount: 2
Fore
SplineSet
852 275 m 256,0,1
 915 275 915 275 962 314 c 128,-1,2
 1009 353 1009 353 1040 417.5 c 128,-1,3
 1071 482 1071 482 1086.5 564.5 c 128,-1,4
 1102 647 1102 647 1102 733 c 0,5,6
 1102 820 1102 820 1086.5 902.5 c 128,-1,7
 1071 985 1071 985 1039.5 1048.5 c 128,-1,8
 1008 1112 1008 1112 961 1151 c 128,-1,9
 914 1190 914 1190 852 1190 c 256,10,11
 790 1190 790 1190 743.5 1151 c 128,-1,12
 697 1112 697 1112 665.5 1048.5 c 128,-1,13
 634 985 634 985 618.5 902.5 c 128,-1,14
 603 820 603 820 603 733 c 0,15,16
 603 647 603 647 618.5 564.5 c 128,-1,17
 634 482 634 482 665 417.5 c 128,-1,18
 696 353 696 353 742.5 314 c 128,-1,19
 789 275 789 275 852 275 c 256,0,1
852 -38 m 256,20,21
 719 -38 719 -38 614.5 -7.5 c 128,-1,22
 510 23 510 23 430.5 76.5 c 128,-1,23
 351 130 351 130 295 203.5 c 128,-1,24
 239 277 239 277 203.5 362.5 c 128,-1,25
 168 448 168 448 152 543 c 128,-1,26
 136 638 136 638 136 735 c 0,27,28
 136 831 136 831 155.5 925 c 128,-1,29
 175 1019 175 1019 214.5 1104 c 128,-1,30
 254 1189 254 1189 313 1262 c 128,-1,31
 372 1335 372 1335 451.5 1388 c 128,-1,32
 531 1441 531 1441 631 1471 c 128,-1,33
 731 1501 731 1501 852 1501 c 256,34,35
 973 1501 973 1501 1073 1471 c 128,-1,36
 1173 1441 1173 1441 1253 1388 c 128,-1,37
 1333 1335 1333 1335 1392 1262 c 128,-1,38
 1451 1189 1451 1189 1490.5 1104 c 128,-1,39
 1530 1019 1530 1019 1549.5 925 c 128,-1,40
 1569 831 1569 831 1569 735 c 0,41,42
 1569 638 1569 638 1553 543 c 128,-1,43
 1537 448 1537 448 1501.5 362.5 c 128,-1,44
 1466 277 1466 277 1410 203.5 c 128,-1,45
 1354 130 1354 130 1274 76.5 c 128,-1,46
 1194 23 1194 23 1089.5 -7.5 c 128,-1,47
 985 -38 985 -38 852 -38 c 256,20,21
EndSplineSet
EndChar

StartChar: P
Encoding: 80 80 51
Width: 1455
GlyphClass: 2
Flags: W
LayerCount: 2
Fore
SplineSet
182 1465 m 1,0,-1
 677 1465 l 2,1,2
 813 1465 813 1465 919.5 1445.5 c 128,-1,3
 1026 1426 1026 1426 1106.5 1391.5 c 128,-1,4
 1187 1357 1187 1357 1242.5 1310 c 128,-1,5
 1298 1263 1298 1263 1333 1208 c 128,-1,6
 1368 1153 1368 1153 1383.5 1092 c 128,-1,7
 1399 1031 1399 1031 1399 969 c 0,8,9
 1399 913 1399 913 1387 855.5 c 128,-1,10
 1375 798 1375 798 1347 744.5 c 128,-1,11
 1319 691 1319 691 1273 644 c 128,-1,12
 1227 597 1227 597 1159.5 562 c 128,-1,13
 1092 527 1092 527 1000 507 c 128,-1,14
 908 487 908 487 789 487 c 0,15,16
 754 487 754 487 721 488.5 c 128,-1,17
 688 490 688 490 648 494 c 1,18,-1
 648 0 l 1,19,-1
 182 0 l 1,20,-1
 182 1465 l 1,0,-1
648 729 m 1,21,22
 656 729 656 729 663.5 729.5 c 128,-1,23
 671 730 671 730 679 730 c 0,24,25
 754 733 754 733 804.5 751.5 c 128,-1,26
 855 770 855 770 886 799 c 128,-1,27
 917 828 917 828 930.5 866.5 c 128,-1,28
 944 905 944 905 944 948 c 0,29,30
 944 1026 944 1026 922.5 1070 c 128,-1,31
 901 1114 901 1114 864.5 1136 c 128,-1,32
 828 1158 828 1158 778.5 1163.5 c 128,-1,33
 729 1169 729 1169 674 1169 c 2,34,-1
 648 1169 l 1,35,-1
 648 729 l 1,21,22
EndSplineSet
EndChar

StartChar: Q
Encoding: 81 81 52
Width: 1671
GlyphClass: 2
Flags: W
LayerCount: 2
Fore
SplineSet
1335 -490 m 1,0,1
 1190 -490 1190 -490 1085 -462 c 128,-1,2
 980 -434 980 -434 905.5 -377.5 c 128,-1,3
 831 -321 831 -321 781.5 -235 c 128,-1,4
 732 -149 732 -149 698 -33 c 1,5,6
 590 -20 590 -20 502.5 17 c 128,-1,7
 415 54 415 54 347 109.5 c 128,-1,8
 279 165 279 165 229.5 235.5 c 128,-1,9
 180 306 180 306 148 387 c 128,-1,10
 116 468 116 468 100.5 556.5 c 128,-1,11
 85 645 85 645 85 735 c 0,12,13
 85 831 85 831 104.5 925 c 128,-1,14
 124 1019 124 1019 163.5 1104 c 128,-1,15
 203 1189 203 1189 263 1262 c 128,-1,16
 323 1335 323 1335 403.5 1388 c 128,-1,17
 484 1441 484 1441 585 1471 c 128,-1,18
 686 1501 686 1501 809 1501 c 0,19,20
 944 1501 944 1501 1050.5 1471 c 128,-1,21
 1157 1441 1157 1441 1237.5 1388 c 128,-1,22
 1318 1335 1318 1335 1374.5 1262 c 128,-1,23
 1431 1189 1431 1189 1466.5 1104 c 128,-1,24
 1502 1019 1502 1019 1518.5 925 c 128,-1,25
 1535 831 1535 831 1535 735 c 0,26,27
 1535 617 1535 617 1508.5 502 c 128,-1,28
 1482 387 1482 387 1423 288 c 128,-1,29
 1364 189 1364 189 1270.5 111 c 128,-1,30
 1177 33 1177 33 1043 -11 c 1,31,32
 1054 -41 1054 -41 1085 -59.5 c 128,-1,33
 1116 -78 1116 -78 1159 -89 c 128,-1,34
 1202 -100 1202 -100 1253.5 -104 c 128,-1,35
 1305 -108 1305 -108 1359 -108 c 1,36,-1
 1335 -490 l 1,0,1
809 275 m 256,37,38
 875 275 875 275 924 314 c 128,-1,39
 973 353 973 353 1005.5 417.5 c 128,-1,40
 1038 482 1038 482 1053.5 564.5 c 128,-1,41
 1069 647 1069 647 1069 733 c 0,42,43
 1069 820 1069 820 1053 902.5 c 128,-1,44
 1037 985 1037 985 1004.5 1048.5 c 128,-1,45
 972 1112 972 1112 923 1151 c 128,-1,46
 874 1190 874 1190 809 1190 c 256,47,48
 744 1190 744 1190 695.5 1151 c 128,-1,49
 647 1112 647 1112 615 1048.5 c 128,-1,50
 583 985 583 985 567 902.5 c 128,-1,51
 551 820 551 820 551 733 c 0,52,53
 551 647 551 647 566.5 564.5 c 128,-1,54
 582 482 582 482 614 417.5 c 128,-1,55
 646 353 646 353 694.5 314 c 128,-1,56
 743 275 743 275 809 275 c 256,37,38
EndSplineSet
EndChar

StartChar: R
Encoding: 82 82 53
Width: 1578
GlyphClass: 2
Flags: W
LayerCount: 2
Fore
SplineSet
182 1465 m 1,0,-1
 731 1465 l 2,1,2
 906 1465 906 1465 1035 1422.5 c 128,-1,3
 1164 1380 1164 1380 1248 1310.5 c 128,-1,4
 1332 1241 1332 1241 1373 1152 c 128,-1,5
 1414 1063 1414 1063 1414 970 c 0,6,7
 1414 907 1414 907 1396.5 841.5 c 128,-1,8
 1379 776 1379 776 1339.5 717 c 128,-1,9
 1300 658 1300 658 1234.5 610 c 128,-1,10
 1169 562 1169 562 1073 535 c 1,11,12
 1095 495 1095 495 1119.5 461.5 c 128,-1,13
 1144 428 1144 428 1178.5 404 c 128,-1,14
 1213 380 1213 380 1260 366.5 c 128,-1,15
 1307 353 1307 353 1375 353 c 2,16,-1
 1401 353 l 2,17,18
 1408 353 1408 353 1415.5 353 c 128,-1,19
 1423 353 1423 353 1431 354 c 1,20,-1
 1416 -34 l 1,21,22
 1385 -36 1385 -36 1354.5 -38 c 128,-1,23
 1324 -40 1324 -40 1296 -40 c 0,24,25
 1187 -40 1187 -40 1101.5 -9 c 128,-1,26
 1016 22 1016 22 950 86 c 128,-1,27
 884 150 884 150 836.5 247.5 c 128,-1,28
 789 345 789 345 757 477 c 1,29,30
 748 476 748 476 733 475.5 c 128,-1,31
 718 475 718 475 702.5 475 c 128,-1,32
 687 475 687 475 672 475 c 128,-1,33
 657 475 657 475 648 475 c 1,34,-1
 648 0 l 1,35,-1
 182 0 l 1,36,-1
 182 1465 l 1,0,-1
683 730 m 2,37,38
 758 730 758 730 808.5 748.5 c 128,-1,39
 859 767 859 767 889.5 798 c 128,-1,40
 920 829 920 829 933.5 868.5 c 128,-1,41
 947 908 947 908 947 949 c 0,42,43
 947 1021 947 1021 926 1063 c 128,-1,44
 905 1105 905 1105 869 1126.5 c 128,-1,45
 833 1148 833 1148 785 1153.5 c 128,-1,46
 737 1159 737 1159 682 1159 c 2,47,-1
 648 1159 l 1,48,-1
 648 730 l 1,49,-1
 683 730 l 2,37,38
EndSplineSet
EndChar

StartChar: S
Encoding: 83 83 54
Width: 1473
GlyphClass: 2
Flags: W
LayerCount: 2
Fore
SplineSet
734 -46 m 0,0,1
 669 -46 669 -46 599 -38.5 c 128,-1,2
 529 -31 529 -31 457.5 -16.5 c 128,-1,3
 386 -2 386 -2 315.5 19.5 c 128,-1,4
 245 41 245 41 181 69 c 1,5,-1
 181 429 l 1,6,7
 234 402 234 402 295.5 379 c 128,-1,8
 357 356 357 356 422 339 c 128,-1,9
 487 322 487 322 553 312 c 128,-1,10
 619 302 619 302 681 302 c 0,11,12
 762 302 762 302 801.5 319.5 c 128,-1,13
 841 337 841 337 841 382 c 0,14,15
 841 407 841 407 828.5 426 c 128,-1,16
 816 445 816 445 789.5 462.5 c 128,-1,17
 763 480 763 480 722.5 497.5 c 128,-1,18
 682 515 682 515 625 539 c 0,19,20
 581 557 581 557 528.5 581.5 c 128,-1,21
 476 606 476 606 422 638.5 c 128,-1,22
 368 671 368 671 317.5 712 c 128,-1,23
 267 753 267 753 228 806 c 128,-1,24
 189 859 189 859 165.5 923.5 c 128,-1,25
 142 988 142 988 142 1068 c 0,26,27
 142 1157 142 1157 177.5 1236.5 c 128,-1,28
 213 1316 213 1316 288 1375.5 c 128,-1,29
 363 1435 363 1435 479 1470 c 128,-1,30
 595 1505 595 1505 755 1505 c 0,31,32
 810 1505 810 1505 878 1499.5 c 128,-1,33
 946 1494 946 1494 1016.5 1480 c 128,-1,34
 1087 1466 1087 1466 1155 1441 c 128,-1,35
 1223 1416 1223 1416 1278 1377 c 1,36,37
 1270 1311 1270 1311 1264.5 1263.5 c 128,-1,38
 1259 1216 1259 1216 1255 1181.5 c 128,-1,39
 1251 1147 1251 1147 1248 1122.5 c 128,-1,40
 1245 1098 1245 1098 1242 1077 c 1,41,42
 1198 1096 1198 1096 1146.5 1114 c 128,-1,43
 1095 1132 1095 1132 1041 1146.5 c 128,-1,44
 987 1161 987 1161 932 1170 c 128,-1,45
 877 1179 877 1179 825 1179 c 0,46,47
 741 1179 741 1179 689.5 1162.5 c 128,-1,48
 638 1146 638 1146 638 1107 c 0,49,50
 638 1078 638 1078 653.5 1055 c 128,-1,51
 669 1032 669 1032 699 1011 c 128,-1,52
 729 990 729 990 772.5 969.5 c 128,-1,53
 816 949 816 949 872 925 c 0,54,55
 917 905 917 905 969 881 c 128,-1,56
 1021 857 1021 857 1073 826 c 128,-1,57
 1125 795 1125 795 1173 756.5 c 128,-1,58
 1221 718 1221 718 1257.5 669 c 128,-1,59
 1294 620 1294 620 1316 559.5 c 128,-1,60
 1338 499 1338 499 1338 425 c 0,61,62
 1338 338 1338 338 1303 254 c 128,-1,63
 1268 170 1268 170 1194.5 103 c 128,-1,64
 1121 36 1121 36 1007 -5 c 128,-1,65
 893 -46 893 -46 734 -46 c 0,0,1
EndSplineSet
EndChar

StartChar: T
Encoding: 84 84 55
Width: 1287
GlyphClass: 2
Flags: W
LayerCount: 2
Fore
SplineSet
410 0 m 1,0,-1
 410 1141 l 1,1,-1
 104 1141 l 1,2,-1
 104 1465 l 1,3,-1
 1183 1465 l 1,4,-1
 1183 1141 l 1,5,-1
 877 1141 l 1,6,-1
 877 0 l 1,7,-1
 410 0 l 1,0,-1
EndSplineSet
EndChar

StartChar: U
Encoding: 85 85 56
Width: 1570
GlyphClass: 2
Flags: W
LayerCount: 2
Fore
SplineSet
793 -40 m 0,0,1
 642 -40 642 -40 524.5 6 c 128,-1,2
 407 52 407 52 326 144 c 128,-1,3
 245 236 245 236 203 372.5 c 128,-1,4
 161 509 161 509 161 691 c 2,5,-1
 161 1465 l 1,6,-1
 637 1465 l 1,7,-1
 637 689 l 2,8,9
 637 588 637 588 646.5 511 c 128,-1,10
 656 434 656 434 680 382.5 c 128,-1,11
 704 331 704 331 745 305 c 128,-1,12
 786 279 786 279 849 279 c 0,13,14
 913 279 913 279 954.5 305 c 128,-1,15
 996 331 996 331 1020.5 382.5 c 128,-1,16
 1045 434 1045 434 1055 511 c 128,-1,17
 1065 588 1065 588 1065 689 c 2,18,-1
 1065 1465 l 1,19,-1
 1408 1465 l 1,20,-1
 1408 691 l 2,21,22
 1408 326 1408 326 1255 143 c 128,-1,23
 1102 -40 1102 -40 793 -40 c 0,0,1
EndSplineSet
EndChar

StartChar: V
Encoding: 86 86 57
Width: 1584
GlyphClass: 2
Flags: W
LayerCount: 2
Fore
SplineSet
106 1465 m 1,0,-1
 646 1465 l 1,1,-1
 868 426 l 1,2,-1
 1131 1465 l 1,3,-1
 1479 1465 l 1,4,-1
 1089 0 l 1,5,-1
 489 0 l 1,6,-1
 106 1465 l 1,0,-1
EndSplineSet
EndChar

StartChar: W
Encoding: 87 87 58
Width: 2276
GlyphClass: 2
Flags: W
LayerCount: 2
Fore
SplineSet
1168 686 m 1,0,-1
 990 0 l 1,1,-1
 390 0 l 1,2,-1
 148 1465 l 1,3,-1
 689 1465 l 1,4,-1
 789 426 l 1,5,-1
 1022 1465 l 1,6,-1
 1414 1465 l 1,7,-1
 1655 426 l 1,8,-1
 1778 1465 l 1,9,-1
 2125 1465 l 1,10,-1
 1897 0 l 1,11,-1
 1297 0 l 1,12,-1
 1168 686 l 1,0,-1
EndSplineSet
EndChar

StartChar: X
Encoding: 88 88 59
Width: 1697
GlyphClass: 2
Flags: W
LayerCount: 2
Fore
SplineSet
1190 737 m 1,0,-1
 1535 -1 l 1,1,-1
 995 -1 l 1,2,-1
 774 463 l 1,3,-1
 561 -1 l 1,4,-1
 163 -1 l 1,5,-1
 507 724 l 1,6,-1
 163 1465 l 1,7,-1
 703 1465 l 1,8,-1
 914 977 l 1,9,-1
 1147 1465 l 1,10,-1
 1535 1465 l 1,11,-1
 1190 737 l 1,0,-1
EndSplineSet
EndChar

StartChar: Y
Encoding: 89 89 60
Width: 1474
GlyphClass: 2
Flags: W
LayerCount: 2
Fore
SplineSet
527 0 m 1,0,-1
 527 498 l 1,1,-1
 80 1465 l 1,2,-1
 620 1465 l 1,3,-1
 801 977 l 1,4,-1
 974 1465 l 1,5,-1
 1382 1465 l 1,6,-1
 994 511 l 1,7,-1
 994 0 l 1,8,-1
 527 0 l 1,0,-1
EndSplineSet
EndChar

StartChar: Z
Encoding: 90 90 61
Width: 1303
GlyphClass: 2
Flags: W
LayerCount: 2
Fore
SplineSet
1115 1464 m 1,0,-1
 1115 1139 l 1,1,-1
 661 325 l 1,2,-1
 1115 325 l 1,3,-1
 1115 0 l 1,4,-1
 169 0 l 1,5,-1
 169 325 l 1,6,-1
 652 1139 l 1,7,-1
 229 1139 l 1,8,-1
 229 1464 l 1,9,-1
 1115 1464 l 1,0,-1
EndSplineSet
EndChar

StartChar: bracketleft
Encoding: 91 91 62
Width: 905
GlyphClass: 2
Flags: W
LayerCount: 2
Fore
SplineSet
92 1616 m 1,0,-1
 813 1616 l 1,1,-1
 813 1291 l 1,2,-1
 553 1291 l 1,3,-1
 553 325 l 1,4,-1
 813 325 l 1,5,-1
 813 0 l 1,6,-1
 92 0 l 1,7,-1
 92 1616 l 1,0,-1
EndSplineSet
EndChar

StartChar: backslash
Encoding: 92 92 63
Width: 947
GlyphClass: 2
Flags: W
LayerCount: 2
Fore
SplineSet
487 1464 m 1,0,-1
 914 0 l 1,1,-1
 432 0 l 1,2,-1
 30 1464 l 1,3,-1
 487 1464 l 1,0,-1
EndSplineSet
EndChar

StartChar: bracketright
Encoding: 93 93 64
Width: 905
GlyphClass: 2
Flags: W
LayerCount: 2
Fore
SplineSet
813 0 m 1,0,-1
 92 0 l 1,1,-1
 92 325 l 1,2,-1
 351 325 l 1,3,-1
 351 1291 l 1,4,-1
 92 1291 l 1,5,-1
 92 1616 l 1,6,-1
 813 1616 l 1,7,-1
 813 0 l 1,0,-1
EndSplineSet
EndChar

StartChar: grave
Encoding: 96 96 67
Width: 656
GlyphClass: 2
Flags: W
LayerCount: 2
Fore
SplineSet
294 1263 m 1,0,1
 278 1301 278 1301 255 1352.5 c 128,-1,2
 232 1404 232 1404 200 1470.5 c 128,-1,3
 168 1537 168 1537 126 1620 c 128,-1,4
 84 1703 84 1703 30 1804 c 1,5,-1
 501 1804 l 1,6,-1
 587 1263 l 1,7,-1
 294 1263 l 1,0,1
EndSplineSet
EndChar

StartChar: a
Encoding: 97 97 68
Width: 1466
GlyphClass: 2
Flags: W
LayerCount: 2
Fore
SplineSet
464 -25 m 0,0,1
 405 -25 405 -25 350 -8.5 c 128,-1,2
 295 8 295 8 253 42 c 128,-1,3
 211 76 211 76 185.5 129 c 128,-1,4
 160 182 160 182 160 254 c 0,5,6
 160 332 160 332 184.5 389 c 128,-1,7
 209 446 209 446 250 486 c 128,-1,8
 291 526 291 526 345 551 c 128,-1,9
 399 576 399 576 457.5 590 c 128,-1,10
 516 604 516 604 576 609 c 128,-1,11
 636 614 636 614 690 614 c 0,12,13
 724 614 724 614 753 612.5 c 128,-1,14
 782 611 782 611 803.5 609.5 c 128,-1,15
 825 608 825 608 837.5 607 c 128,-1,16
 850 606 850 606 851 606 c 1,17,-1
 851 628 l 2,18,19
 851 673 851 673 835.5 704 c 128,-1,20
 820 735 820 735 793.5 754 c 128,-1,21
 767 773 767 773 731.5 781.5 c 128,-1,22
 696 790 696 790 656 790 c 0,23,24
 591 790 591 790 516.5 777.5 c 128,-1,25
 442 765 442 765 374 747 c 128,-1,26
 306 729 306 729 252 709 c 128,-1,27
 198 689 198 689 174 674 c 1,28,-1
 174 1002 l 1,29,30
 215 1029 215 1029 278.5 1054.5 c 128,-1,31
 342 1080 342 1080 416.5 1100 c 128,-1,32
 491 1120 491 1120 571 1132.5 c 128,-1,33
 651 1145 651 1145 725 1145 c 0,34,35
 837 1145 837 1145 941 1120 c 128,-1,36
 1045 1095 1045 1095 1124.5 1037 c 128,-1,37
 1204 979 1204 979 1251.5 885.5 c 128,-1,38
 1299 792 1299 792 1299 655 c 2,39,-1
 1299 0 l 1,40,-1
 851 0 l 1,41,-1
 851 179 l 1,42,43
 828 130 828 130 786.5 92 c 128,-1,44
 745 54 745 54 692.5 28 c 128,-1,45
 640 2 640 2 581 -11.5 c 128,-1,46
 522 -25 522 -25 464 -25 c 0,0,1
613 206 m 0,47,48
 658 206 658 206 701 225.5 c 128,-1,49
 744 245 744 245 777 268 c 0,50,51
 816 295 816 295 851 330 c 1,52,-1
 851 467 l 1,53,-1
 830 467 l 2,54,55
 771 467 771 467 711 458 c 128,-1,56
 651 449 651 449 603 430 c 128,-1,57
 555 411 555 411 524.5 383 c 128,-1,58
 494 355 494 355 494 317 c 0,59,60
 494 287 494 287 504 266 c 128,-1,61
 514 245 514 245 530.5 231.5 c 128,-1,62
 547 218 547 218 568.5 212 c 128,-1,63
 590 206 590 206 613 206 c 0,47,48
EndSplineSet
EndChar

StartChar: b
Encoding: 98 98 69
Width: 1594
GlyphClass: 2
Flags: W
LayerCount: 2
Fore
SplineSet
990 -35 m 0,0,1
 933 -35 933 -35 878 -21 c 128,-1,2
 823 -7 823 -7 774 20.5 c 128,-1,3
 725 48 725 48 684.5 87.5 c 128,-1,4
 644 127 644 127 616 178 c 1,5,-1
 616 0 l 1,6,-1
 168 0 l 1,7,-1
 168 1575 l 1,8,-1
 616 1575 l 1,9,-1
 616 931 l 1,10,11
 641 979 641 979 682.5 1018.5 c 128,-1,12
 724 1058 724 1058 775 1086 c 128,-1,13
 826 1114 826 1114 885 1129.5 c 128,-1,14
 944 1145 944 1145 1004 1145 c 0,15,16
 1090 1145 1090 1145 1173.5 1113.5 c 128,-1,17
 1257 1082 1257 1082 1322.5 1011.5 c 128,-1,18
 1388 941 1388 941 1428.5 829 c 128,-1,19
 1469 717 1469 717 1469 555 c 0,20,21
 1469 399 1469 399 1429.5 287.5 c 128,-1,22
 1390 176 1390 176 1323.5 104.5 c 128,-1,23
 1257 33 1257 33 1170.5 -1 c 128,-1,24
 1084 -35 1084 -35 990 -35 c 0,0,1
802 266 m 0,25,26
 830 266 830 266 865.5 274 c 128,-1,27
 901 282 901 282 933 311.5 c 128,-1,28
 965 341 965 341 987 398.5 c 128,-1,29
 1009 456 1009 456 1009 555 c 0,30,31
 1009 626 1009 626 999 675 c 128,-1,32
 989 724 989 724 972.5 756 c 128,-1,33
 956 788 956 788 935 805.5 c 128,-1,34
 914 823 914 823 891.5 831.5 c 128,-1,35
 869 840 869 840 846.5 841.5 c 128,-1,36
 824 843 824 843 806 843 c 0,37,38
 768 843 768 843 735 827.5 c 128,-1,39
 702 812 702 812 677 778.5 c 128,-1,40
 652 745 652 745 636 691 c 128,-1,41
 620 637 620 637 616 559 c 1,42,-1
 616 543 l 1,43,44
 620 468 620 468 635.5 415 c 128,-1,45
 651 362 651 362 675.5 329 c 128,-1,46
 700 296 700 296 732 281 c 128,-1,47
 764 266 764 266 802 266 c 0,25,26
EndSplineSet
EndChar

StartChar: c
Encoding: 99 99 70
Width: 1198
GlyphClass: 2
Flags: W
LayerCount: 2
Fore
SplineSet
731 -39 m 0,0,1
 606 -39 606 -39 496 -1.5 c 128,-1,2
 386 36 386 36 303.5 110.5 c 128,-1,3
 221 185 221 185 173 296.5 c 128,-1,4
 125 408 125 408 125 557 c 0,5,6
 125 673 125 673 165 779.5 c 128,-1,7
 205 886 205 886 281 967 c 128,-1,8
 357 1048 357 1048 467.5 1096.5 c 128,-1,9
 578 1145 578 1145 719 1145 c 0,10,11
 816 1145 816 1145 913.5 1125 c 128,-1,12
 1011 1105 1011 1105 1108 1061 c 1,13,-1
 1088 763 l 1,14,15
 1034 797 1034 797 963.5 813 c 128,-1,16
 893 829 893 829 827 829 c 0,17,18
 773 829 773 829 728.5 811 c 128,-1,19
 684 793 684 793 651.5 758.5 c 128,-1,20
 619 724 619 724 601 673 c 128,-1,21
 583 622 583 622 583 555 c 256,22,23
 583 488 583 488 599.5 436.5 c 128,-1,24
 616 385 616 385 647 350 c 128,-1,25
 678 315 678 315 721 297 c 128,-1,26
 764 279 764 279 818 279 c 0,27,28
 890 279 890 279 958 295 c 128,-1,29
 1026 311 1026 311 1093 345 c 1,30,-1
 1126 53 l 1,31,32
 1038 8 1038 8 937.5 -15.5 c 128,-1,33
 837 -39 837 -39 731 -39 c 0,0,1
EndSplineSet
EndChar

StartChar: d
Encoding: 100 100 71
Width: 1596
GlyphClass: 2
Flags: W
LayerCount: 2
Fore
SplineSet
601 -35 m 0,0,1
 510 -35 510 -35 424.5 -1.5 c 128,-1,2
 339 32 339 32 272.5 104 c 128,-1,3
 206 176 206 176 165.5 287.5 c 128,-1,4
 125 399 125 399 125 555 c 0,5,6
 125 717 125 717 166 829 c 128,-1,7
 207 941 207 941 273 1011.5 c 128,-1,8
 339 1082 339 1082 422.5 1113.5 c 128,-1,9
 506 1145 506 1145 591 1145 c 0,10,11
 652 1145 652 1145 711 1129 c 128,-1,12
 770 1113 770 1113 821.5 1083.5 c 128,-1,13
 873 1054 873 1054 914 1012.5 c 128,-1,14
 955 971 955 971 980 921 c 1,15,-1
 980 1576 l 1,16,-1
 1428 1576 l 1,17,-1
 1428 0 l 1,18,-1
 980 0 l 1,19,-1
 980 209 l 1,20,21
 953 151 953 151 912.5 106 c 128,-1,22
 872 61 872 61 822 29.5 c 128,-1,23
 772 -2 772 -2 715.5 -18.5 c 128,-1,24
 659 -35 659 -35 601 -35 c 0,0,1
791 266 m 0,25,26
 828 266 828 266 862.5 281 c 128,-1,27
 897 296 897 296 923 328.5 c 128,-1,28
 949 361 949 361 964.5 413.5 c 128,-1,29
 980 466 980 466 980 541 c 2,30,-1
 980 559 l 2,31,32
 980 637 980 637 964.5 691 c 128,-1,33
 949 745 949 745 923 778.5 c 128,-1,34
 897 812 897 812 862.5 827.5 c 128,-1,35
 828 843 828 843 790 843 c 0,36,37
 772 843 772 843 750 841.5 c 128,-1,38
 728 840 728 840 705.5 831.5 c 128,-1,39
 683 823 683 823 661 805.5 c 128,-1,40
 639 788 639 788 622.5 756 c 128,-1,41
 606 724 606 724 595.5 675 c 128,-1,42
 585 626 585 626 585 555 c 0,43,44
 585 489 585 489 595.5 442 c 128,-1,45
 606 395 606 395 623 363 c 128,-1,46
 640 331 640 331 661.5 311.5 c 128,-1,47
 683 292 683 292 706 282 c 128,-1,48
 729 272 729 272 751 269 c 128,-1,49
 773 266 773 266 791 266 c 0,25,26
EndSplineSet
EndChar

StartChar: e
Encoding: 101 101 72
Width: 1376
GlyphClass: 2
Flags: W
LayerCount: 2
Fore
SplineSet
762 -41 m 0,0,1
 635 -41 635 -41 520 -7 c 128,-1,2
 405 27 405 27 317.5 99.5 c 128,-1,3
 230 172 230 172 178.5 285.5 c 128,-1,4
 127 399 127 399 127 557 c 0,5,6
 127 656 127 656 153.5 738.5 c 128,-1,7
 180 821 180 821 226 886 c 128,-1,8
 272 951 272 951 333.5 999.5 c 128,-1,9
 395 1048 395 1048 464.5 1079.5 c 128,-1,10
 534 1111 534 1111 609 1127 c 128,-1,11
 684 1143 684 1143 756 1143 c 0,12,13
 868 1143 868 1143 955.5 1113 c 128,-1,14
 1043 1083 1043 1083 1103 1035 c 128,-1,15
 1163 987 1163 987 1194.5 927 c 128,-1,16
 1226 867 1226 867 1226 807 c 0,17,18
 1226 702 1226 702 1182.5 629.5 c 128,-1,19
 1139 557 1139 557 1069 512 c 128,-1,20
 999 467 999 467 912.5 447 c 128,-1,21
 826 427 826 427 740 427 c 0,22,23
 696 427 696 427 656 430.5 c 128,-1,24
 616 434 616 434 578 439 c 1,25,26
 579 395 579 395 597.5 363.5 c 128,-1,27
 616 332 616 332 648.5 312 c 128,-1,28
 681 292 681 292 725 282.5 c 128,-1,29
 769 273 769 273 821 273 c 0,30,31
 860 273 860 273 905 278 c 128,-1,32
 950 283 950 283 995 292.5 c 128,-1,33
 1040 302 1040 302 1082 315.5 c 128,-1,34
 1124 329 1124 329 1157 347 c 1,35,-1
 1207 53 l 1,36,37
 1106 8 1106 8 994.5 -16.5 c 128,-1,38
 883 -41 883 -41 762 -41 c 0,0,1
566 611 m 1,39,40
 590 612 590 612 625 614.5 c 128,-1,41
 660 617 660 617 699.5 622.5 c 128,-1,42
 739 628 739 628 778 638.5 c 128,-1,43
 817 649 817 649 848 665.5 c 128,-1,44
 879 682 879 682 898.5 706 c 128,-1,45
 918 730 918 730 918 764 c 0,46,47
 918 793 918 793 908.5 817.5 c 128,-1,48
 899 842 899 842 881.5 859.5 c 128,-1,49
 864 877 864 877 839.5 887 c 128,-1,50
 815 897 815 897 785 897 c 0,51,52
 750 897 750 897 712.5 886 c 128,-1,53
 675 875 675 875 643.5 843.5 c 128,-1,54
 612 812 612 812 590.5 756 c 128,-1,55
 569 700 569 700 566 611 c 1,39,40
EndSplineSet
EndChar

StartChar: f
Encoding: 102 102 73
Width: 1022
GlyphClass: 2
Flags: W
LayerCount: 2
Fore
SplineSet
644 0 m 1,0,-1
 196 0 l 1,1,-1
 196 844 l 1,2,-1
 45 844 l 1,3,-1
 45 1110 l 1,4,-1
 196 1110 l 1,5,-1
 196 1174 l 2,6,7
 196 1289 196 1289 236.5 1367 c 128,-1,8
 277 1445 277 1445 344 1493 c 128,-1,9
 411 1541 411 1541 497.5 1561.5 c 128,-1,10
 584 1582 584 1582 675 1582 c 0,11,12
 756 1582 756 1582 831 1564.5 c 128,-1,13
 906 1547 906 1547 964 1521 c 1,14,15
 964 1490 964 1490 960.5 1460 c 128,-1,16
 957 1430 957 1430 953.5 1400 c 128,-1,17
 950 1370 950 1370 946.5 1340 c 128,-1,18
 943 1310 943 1310 943 1279 c 1,19,20
 880 1294 880 1294 830 1302.5 c 128,-1,21
 780 1311 780 1311 738 1311 c 0,22,23
 709 1311 709 1311 690.5 1295 c 128,-1,24
 672 1279 672 1279 661.5 1253 c 128,-1,25
 651 1227 651 1227 647.5 1193.5 c 128,-1,26
 644 1160 644 1160 644 1124 c 2,27,-1
 644 1110 l 1,28,-1
 955 1110 l 1,29,30
 947 1071 947 1071 942 1027 c 0,31,32
 937 989 937 989 933.5 942 c 128,-1,33
 930 895 930 895 930 844 c 1,34,-1
 644 844 l 1,35,-1
 644 0 l 1,0,-1
EndSplineSet
EndChar

StartChar: g
Encoding: 103 103 74
Width: 1586
GlyphClass: 2
Flags: W
LayerCount: 2
Fore
SplineSet
990 881 m 1,0,1
 990 935 990 935 985 977.5 c 128,-1,2
 980 1020 980 1020 975 1049 c 0,3,4
 968 1083 968 1083 960 1110 c 1,5,-1
 1418 1110 l 1,6,-1
 1418 132 l 2,7,8
 1418 25 1418 25 1391.5 -57.5 c 128,-1,9
 1365 -140 1365 -140 1318 -201 c 128,-1,10
 1271 -262 1271 -262 1206.5 -303.5 c 128,-1,11
 1142 -345 1142 -345 1067 -370.5 c 128,-1,12
 992 -396 992 -396 908 -407 c 128,-1,13
 824 -418 824 -418 739 -418 c 0,14,15
 640 -418 640 -418 544.5 -406 c 128,-1,16
 449 -394 449 -394 363 -375 c 1,17,-1
 363 -78 l 1,18,19
 440 -87 440 -87 519.5 -98 c 128,-1,20
 599 -109 599 -109 673 -109 c 0,21,22
 735 -109 735 -109 789.5 -99 c 128,-1,23
 844 -89 844 -89 884 -62 c 128,-1,24
 924 -35 924 -35 947 13 c 128,-1,25
 970 61 970 61 970 136 c 2,26,-1
 970 289 l 1,27,28
 944 231 944 231 906 186 c 128,-1,29
 868 141 868 141 820.5 109.5 c 128,-1,30
 773 78 773 78 719.5 61.5 c 128,-1,31
 666 45 666 45 611 45 c 0,32,33
 518 45 518 45 430.5 76 c 128,-1,34
 343 107 343 107 275 172.5 c 128,-1,35
 207 238 207 238 166 340 c 128,-1,36
 125 442 125 442 125 585 c 0,37,38
 125 739 125 739 166 845.5 c 128,-1,39
 207 952 207 952 273 1018.5 c 128,-1,40
 339 1085 339 1085 422.5 1115 c 128,-1,41
 506 1145 506 1145 591 1145 c 0,42,43
 652 1145 652 1145 712 1130 c 128,-1,44
 772 1115 772 1115 825.5 1083 c 128,-1,45
 879 1051 879 1051 921.5 1001 c 128,-1,46
 964 951 964 951 990 881 c 1,0,1
791 346 m 0,47,48
 843 346 843 346 877.5 368.5 c 128,-1,49
 912 391 912 391 932.5 426.5 c 128,-1,50
 953 462 953 462 961.5 505 c 128,-1,51
 970 548 970 548 970 589 c 0,52,53
 970 659 970 659 956 707.5 c 128,-1,54
 942 756 942 756 918 786 c 128,-1,55
 894 816 894 816 861 829.5 c 128,-1,56
 828 843 828 843 790 843 c 0,57,58
 772 843 772 843 750 841.5 c 128,-1,59
 728 840 728 840 705.5 832.5 c 128,-1,60
 683 825 683 825 661 809.5 c 128,-1,61
 639 794 639 794 622.5 765.5 c 128,-1,62
 606 737 606 737 595.5 693 c 128,-1,63
 585 649 585 649 585 585 c 0,64,65
 585 503 585 503 607 455.5 c 128,-1,66
 629 408 629 408 661 383.5 c 128,-1,67
 693 359 693 359 728.5 352.5 c 128,-1,68
 764 346 764 346 791 346 c 0,47,48
EndSplineSet
EndChar

StartChar: h
Encoding: 104 104 75
Width: 1525
GlyphClass: 2
Flags: W
LayerCount: 2
Fore
SplineSet
189 1465 m 1,0,-1
 637 1465 l 1,1,-1
 637 931 l 1,2,3
 666 980 666 980 710 1019.5 c 128,-1,4
 754 1059 754 1059 806.5 1087.5 c 128,-1,5
 859 1116 859 1116 918 1131.5 c 128,-1,6
 977 1147 977 1147 1036 1147 c 0,7,8
 1111 1147 1111 1147 1180.5 1121 c 128,-1,9
 1250 1095 1250 1095 1303.5 1038.5 c 128,-1,10
 1357 982 1357 982 1389 893 c 128,-1,11
 1421 804 1421 804 1421 677 c 2,12,-1
 1421 0 l 1,13,-1
 973 0 l 1,14,-1
 973 570 l 2,15,16
 973 645 973 645 960 697 c 128,-1,17
 947 749 947 749 925.5 781.5 c 128,-1,18
 904 814 904 814 875 828.5 c 128,-1,19
 846 843 846 843 815 843 c 0,20,21
 785 843 785 843 756 829.5 c 128,-1,22
 727 816 727 816 702 793 c 128,-1,23
 677 770 677 770 660 739 c 128,-1,24
 643 708 643 708 637 673 c 1,25,-1
 637 0 l 1,26,-1
 189 0 l 1,27,-1
 189 1465 l 1,0,-1
EndSplineSet
EndChar

StartChar: i
Encoding: 105 105 76
Width: 806
GlyphClass: 2
Flags: W
LayerCount: 2
Fore
SplineSet
184 1110 m 1,0,-1
 632 1110 l 1,1,-1
 632 0 l 1,2,-1
 184 0 l 1,3,-1
 184 1110 l 1,0,-1
398 1243 m 0,4,5
 341 1243 341 1243 291 1252.5 c 128,-1,6
 241 1262 241 1262 204.5 1281.5 c 128,-1,7
 168 1301 168 1301 146.5 1330.5 c 128,-1,8
 125 1360 125 1360 125 1401 c 0,9,10
 125 1452 125 1452 146 1486.5 c 128,-1,11
 167 1521 167 1521 204 1542 c 128,-1,12
 241 1563 241 1563 291 1572 c 128,-1,13
 341 1581 341 1581 399 1581 c 256,14,15
 457 1581 457 1581 507.5 1572 c 128,-1,16
 558 1563 558 1563 595 1542 c 128,-1,17
 632 1521 632 1521 653 1486.5 c 128,-1,18
 674 1452 674 1452 674 1401 c 0,19,20
 674 1360 674 1360 652.5 1330.5 c 128,-1,21
 631 1301 631 1301 594 1281.5 c 128,-1,22
 557 1262 557 1262 506.5 1252.5 c 128,-1,23
 456 1243 456 1243 398 1243 c 0,4,5
EndSplineSet
EndChar

StartChar: j
Encoding: 106 106 77
Width: 985
GlyphClass: 2
Flags: W
LayerCount: 2
Fore
SplineSet
372 -429 m 0,0,1
 293 -429 293 -429 218 -411.5 c 128,-1,2
 143 -394 143 -394 80 -367 c 1,3,-1
 80 -83 l 1,4,5
 129 -100 129 -100 165.5 -107 c 128,-1,6
 202 -114 202 -114 231 -114 c 0,7,8
 273 -114 273 -114 299 -99 c 128,-1,9
 325 -84 325 -84 339.5 -59 c 128,-1,10
 354 -34 354 -34 358.5 -1.5 c 128,-1,11
 363 31 363 31 363 67 c 2,12,-1
 363 1110 l 1,13,-1
 811 1110 l 1,14,-1
 811 44 l 2,15,16
 811 -91 811 -91 774 -182 c 128,-1,17
 737 -273 737 -273 675.5 -327.5 c 128,-1,18
 614 -382 614 -382 535 -405.5 c 128,-1,19
 456 -429 456 -429 372 -429 c 0,0,1
585 1243 m 0,20,21
 528 1243 528 1243 478 1252.5 c 128,-1,22
 428 1262 428 1262 391.5 1281.5 c 128,-1,23
 355 1301 355 1301 333.5 1330.5 c 128,-1,24
 312 1360 312 1360 312 1401 c 0,25,26
 312 1452 312 1452 333 1486.5 c 128,-1,27
 354 1521 354 1521 391 1542 c 128,-1,28
 428 1563 428 1563 478 1572 c 128,-1,29
 528 1581 528 1581 586 1581 c 256,30,31
 644 1581 644 1581 694.5 1572 c 128,-1,32
 745 1563 745 1563 782 1542 c 128,-1,33
 819 1521 819 1521 840 1486.5 c 128,-1,34
 861 1452 861 1452 861 1401 c 0,35,36
 861 1360 861 1360 839.5 1330.5 c 128,-1,37
 818 1301 818 1301 781 1281.5 c 128,-1,38
 744 1262 744 1262 693.5 1252.5 c 128,-1,39
 643 1243 643 1243 585 1243 c 0,20,21
EndSplineSet
EndChar

StartChar: k
Encoding: 107 107 78
Width: 1380
GlyphClass: 2
Flags: W
LayerCount: 2
Fore
SplineSet
636 626 m 1,0,-1
 888 1110 l 1,1,-1
 1331 1110 l 1,2,-1
 1011 592 l 1,3,-1
 1331 0 l 1,4,-1
 831 0 l 1,5,-1
 632 495 l 1,6,-1
 618 495 l 1,7,-1
 618 0 l 1,8,-1
 170 0 l 1,9,-1
 170 1575 l 1,10,-1
 618 1575 l 1,11,-1
 618 626 l 1,12,-1
 636 626 l 1,0,-1
EndSplineSet
EndChar

StartChar: l
Encoding: 108 108 79
Width: 787
GlyphClass: 2
Flags: W
LayerCount: 2
Fore
SplineSet
170 1576 m 1,0,-1
 618 1576 l 1,1,-1
 618 0 l 1,2,-1
 170 0 l 1,3,-1
 170 1576 l 1,0,-1
EndSplineSet
EndChar

StartChar: m
Encoding: 109 109 80
Width: 2319
GlyphClass: 2
Flags: W
LayerCount: 2
Fore
SplineSet
168 1110 m 1,0,-1
 623 1110 l 1,1,2
 614 1079 614 1079 608 1042 c 0,3,4
 602 1010 602 1010 597.5 968.5 c 128,-1,5
 593 927 593 927 593 881 c 1,6,7
 619 934 619 934 663.5 982 c 128,-1,8
 708 1030 708 1030 762.5 1066 c 128,-1,9
 817 1102 817 1102 877.5 1123.5 c 128,-1,10
 938 1145 938 1145 996 1145 c 0,11,12
 1045 1145 1045 1145 1093 1130.5 c 128,-1,13
 1141 1116 1141 1116 1184 1086 c 128,-1,14
 1227 1056 1227 1056 1262.5 1008.5 c 128,-1,15
 1298 961 1298 961 1324 895 c 1,16,17
 1353 952 1353 952 1398.5 998.5 c 128,-1,18
 1444 1045 1444 1045 1499 1078 c 128,-1,19
 1554 1111 1554 1111 1616.5 1129 c 128,-1,20
 1679 1147 1679 1147 1742 1147 c 0,21,22
 1822 1147 1822 1147 1897 1121 c 128,-1,23
 1972 1095 1972 1095 2029.5 1039 c 128,-1,24
 2087 983 2087 983 2122 894 c 128,-1,25
 2157 805 2157 805 2157 678 c 2,26,-1
 2157 0 l 1,27,-1
 1709 0 l 1,28,-1
 1709 569 l 2,29,30
 1709 642 1709 642 1696.5 693.5 c 128,-1,31
 1684 745 1684 745 1662.5 778 c 128,-1,32
 1641 811 1641 811 1613 826 c 128,-1,33
 1585 841 1585 841 1555 841 c 0,34,35
 1526 841 1526 841 1494.5 826 c 128,-1,36
 1463 811 1463 811 1436 783.5 c 128,-1,37
 1409 756 1409 756 1388.5 718.5 c 128,-1,38
 1368 681 1368 681 1361 636 c 1,39,-1
 1361 0 l 1,40,-1
 951 0 l 1,41,-1
 951 569 l 2,42,43
 951 644 951 644 934.5 696 c 128,-1,44
 918 748 918 748 893 781 c 128,-1,45
 868 814 868 814 837 828.5 c 128,-1,46
 806 843 806 843 778 843 c 256,47,48
 750 843 750 843 723 829.5 c 128,-1,49
 696 816 696 816 673.5 793 c 128,-1,50
 651 770 651 770 635.5 739 c 128,-1,51
 620 708 620 708 616 673 c 1,52,-1
 616 0 l 1,53,-1
 168 0 l 1,54,-1
 168 1110 l 1,0,-1
EndSplineSet
EndChar

StartChar: n
Encoding: 110 110 81
Width: 1593
GlyphClass: 2
Flags: W
LayerCount: 2
Fore
SplineSet
187 1110 m 1,0,-1
 643 1110 l 1,1,2
 634 1083 634 1083 628 1049 c 0,3,4
 622 1020 622 1020 617.5 977.5 c 128,-1,5
 613 935 613 935 613 881 c 1,6,7
 643 941 643 941 688.5 990 c 128,-1,8
 734 1039 734 1039 789.5 1074 c 128,-1,9
 845 1109 845 1109 907.5 1128 c 128,-1,10
 970 1147 970 1147 1032 1147 c 0,11,12
 1106 1147 1106 1147 1175.5 1121 c 128,-1,13
 1245 1095 1245 1095 1299 1039 c 128,-1,14
 1353 983 1353 983 1385.5 894 c 128,-1,15
 1418 805 1418 805 1418 678 c 2,16,-1
 1418 0 l 1,17,-1
 970 0 l 1,18,-1
 970 570 l 2,19,20
 970 645 970 645 957 697 c 128,-1,21
 944 749 944 749 922.5 781.5 c 128,-1,22
 901 814 901 814 873 828.5 c 128,-1,23
 845 843 845 843 814 843 c 0,24,25
 784 843 784 843 754.5 829.5 c 128,-1,26
 725 816 725 816 700.5 793 c 128,-1,27
 676 770 676 770 658.5 739 c 128,-1,28
 641 708 641 708 635 673 c 1,29,-1
 635 0 l 1,30,-1
 187 0 l 1,31,-1
 187 1110 l 1,0,-1
EndSplineSet
EndChar

StartChar: o
Encoding: 111 111 82
Width: 1587
GlyphClass: 2
Flags: W
LayerCount: 2
Fore
SplineSet
794 -37 m 256,0,1
 670 -37 670 -37 573.5 -13.5 c 128,-1,2
 477 10 477 10 404 51 c 128,-1,3
 331 92 331 92 280.5 148.5 c 128,-1,4
 230 205 230 205 198.5 271 c 128,-1,5
 167 337 167 337 153 410 c 128,-1,6
 139 483 139 483 139 557 c 256,7,8
 139 631 139 631 153 703.5 c 128,-1,9
 167 776 167 776 198 841.5 c 128,-1,10
 229 907 229 907 279.5 963 c 128,-1,11
 330 1019 330 1019 402.5 1060 c 128,-1,12
 475 1101 475 1101 572 1124 c 128,-1,13
 669 1147 669 1147 794 1147 c 0,14,15
 918 1147 918 1147 1015 1124 c 128,-1,16
 1112 1101 1112 1101 1184.5 1060 c 128,-1,17
 1257 1019 1257 1019 1307.5 963 c 128,-1,18
 1358 907 1358 907 1389 841.5 c 128,-1,19
 1420 776 1420 776 1434 703.5 c 128,-1,20
 1448 631 1448 631 1448 557 c 256,21,22
 1448 483 1448 483 1434 410 c 128,-1,23
 1420 337 1420 337 1388.5 271 c 128,-1,24
 1357 205 1357 205 1306.5 148.5 c 128,-1,25
 1256 92 1256 92 1183.5 51 c 128,-1,26
 1111 10 1111 10 1014.5 -13.5 c 128,-1,27
 918 -37 918 -37 794 -37 c 256,0,1
794 268 m 0,28,29
 848 268 848 268 887 292.5 c 128,-1,30
 926 317 926 317 951 357.5 c 128,-1,31
 976 398 976 398 988 449.5 c 128,-1,32
 1000 501 1000 501 1000 555 c 0,33,34
 1000 610 1000 610 988 662.5 c 128,-1,35
 976 715 976 715 950.5 756.5 c 128,-1,36
 925 798 925 798 886.5 823.5 c 128,-1,37
 848 849 848 849 794 849 c 256,38,39
 740 849 740 849 700.5 823.5 c 128,-1,40
 661 798 661 798 635.5 756.5 c 128,-1,41
 610 715 610 715 598 662.5 c 128,-1,42
 586 610 586 610 586 555 c 0,43,44
 586 501 586 501 598 449.5 c 128,-1,45
 610 398 610 398 635 357.5 c 128,-1,46
 660 317 660 317 699.5 292.5 c 128,-1,47
 739 268 739 268 794 268 c 0,28,29
EndSplineSet
EndChar

StartChar: p
Encoding: 112 112 83
Width: 1594
GlyphClass: 2
Flags: W
LayerCount: 2
Fore
SplineSet
168 1110 m 1,0,-1
 624 1110 l 1,1,2
 615 1081 615 1081 609 1045 c 0,3,4
 603 1014 603 1014 598.5 972 c 128,-1,5
 594 930 594 930 594 881 c 1,6,7
 623 939 623 939 668 987.5 c 128,-1,8
 713 1036 713 1036 766.5 1071 c 128,-1,9
 820 1106 820 1106 879 1125.5 c 128,-1,10
 938 1145 938 1145 996 1145 c 0,11,12
 1087 1145 1087 1145 1172.5 1111 c 128,-1,13
 1258 1077 1258 1077 1324 1005.5 c 128,-1,14
 1390 934 1390 934 1429.5 822.5 c 128,-1,15
 1469 711 1469 711 1469 555 c 0,16,17
 1469 445 1469 445 1449 358 c 128,-1,18
 1429 271 1429 271 1394.5 205 c 128,-1,19
 1360 139 1360 139 1312.5 93 c 128,-1,20
 1265 47 1265 47 1210.5 17.5 c 128,-1,21
 1156 -12 1156 -12 1096 -25.5 c 128,-1,22
 1036 -39 1036 -39 976 -39 c 0,23,24
 917 -39 917 -39 861.5 -25.5 c 128,-1,25
 806 -12 806 -12 758 11.5 c 128,-1,26
 710 35 710 35 673.5 67.5 c 128,-1,27
 637 100 637 100 616 138 c 1,28,-1
 616 -354 l 1,29,-1
 168 -354 l 1,30,-1
 168 1110 l 1,0,-1
802 266 m 0,31,32
 830 266 830 266 865.5 271 c 128,-1,33
 901 276 901 276 933 303.5 c 128,-1,34
 965 331 965 331 987 389.5 c 128,-1,35
 1009 448 1009 448 1009 555 c 0,36,37
 1009 654 1009 654 987.5 711.5 c 128,-1,38
 966 769 966 769 935 798 c 128,-1,39
 904 827 904 827 868.5 835 c 128,-1,40
 833 843 833 843 806 843 c 0,41,42
 768 843 768 843 733.5 828 c 128,-1,43
 699 813 699 813 673 780.5 c 128,-1,44
 647 748 647 748 631.5 696 c 128,-1,45
 616 644 616 644 616 569 c 2,46,-1
 616 550 l 2,47,48
 616 472 616 472 631 418 c 128,-1,49
 646 364 646 364 671.5 330.5 c 128,-1,50
 697 297 697 297 730.5 281.5 c 128,-1,51
 764 266 764 266 802 266 c 0,31,32
EndSplineSet
EndChar

StartChar: q
Encoding: 113 113 84
Width: 1594
GlyphClass: 2
Flags: W
LayerCount: 2
Fore
SplineSet
977 -354 m 1,0,-1
 977 138 l 1,1,2
 956 100 956 100 918.5 67.5 c 128,-1,3
 881 35 881 35 833.5 11.5 c 128,-1,4
 786 -12 786 -12 730 -25.5 c 128,-1,5
 674 -39 674 -39 616 -39 c 0,6,7
 527 -39 527 -39 439 -8 c 128,-1,8
 351 23 351 23 281 93 c 128,-1,9
 211 163 211 163 168 276.5 c 128,-1,10
 125 390 125 390 125 555 c 0,11,12
 125 711 125 711 164.5 822.5 c 128,-1,13
 204 934 204 934 270 1005.5 c 128,-1,14
 336 1077 336 1077 421.5 1111 c 128,-1,15
 507 1145 507 1145 599 1145 c 0,16,17
 657 1145 657 1145 712.5 1130.5 c 128,-1,18
 768 1116 768 1116 817.5 1088.5 c 128,-1,19
 867 1061 867 1061 908 1021 c 128,-1,20
 949 981 949 981 977 931 c 1,21,-1
 977 1110 l 1,22,-1
 1426 1110 l 1,23,-1
 1426 -354 l 1,24,-1
 977 -354 l 1,0,-1
792 266 m 0,25,26
 830 266 830 266 863.5 281.5 c 128,-1,27
 897 297 897 297 922.5 330.5 c 128,-1,28
 948 364 948 364 962.5 418 c 128,-1,29
 977 472 977 472 977 550 c 2,30,-1
 977 569 l 2,31,32
 977 644 977 644 961.5 696 c 128,-1,33
 946 748 946 748 920 780.5 c 128,-1,34
 894 813 894 813 859.5 828 c 128,-1,35
 825 843 825 843 788 843 c 0,36,37
 761 843 761 843 725.5 835 c 128,-1,38
 690 827 690 827 659 798 c 128,-1,39
 628 769 628 769 606.5 711.5 c 128,-1,40
 585 654 585 654 585 555 c 0,41,42
 585 484 585 484 595 435 c 128,-1,43
 605 386 605 386 622 353.5 c 128,-1,44
 639 321 639 321 660.5 303.5 c 128,-1,45
 682 286 682 286 705 277.5 c 128,-1,46
 728 269 728 269 750.5 267.5 c 128,-1,47
 773 266 773 266 792 266 c 0,25,26
EndSplineSet
EndChar

StartChar: r
Encoding: 114 114 85
Width: 1172
GlyphClass: 2
Flags: W
LayerCount: 2
Fore
SplineSet
186 1110 m 1,0,-1
 649 1110 l 1,1,2
 640 1085 640 1085 634 1045 c 0,3,4
 628 1010 628 1010 623.5 955 c 128,-1,5
 619 900 619 900 619 819 c 1,6,7
 638 884 638 884 672 943.5 c 128,-1,8
 706 1003 706 1003 751.5 1048.5 c 128,-1,9
 797 1094 797 1094 853.5 1121 c 128,-1,10
 910 1148 910 1148 973 1148 c 0,11,12
 1005 1148 1005 1148 1040 1141.5 c 128,-1,13
 1075 1135 1075 1135 1111 1121 c 1,14,-1
 1013 656 l 1,15,16
 954 684 954 684 904 697 c 128,-1,17
 854 710 854 710 816 710 c 0,18,19
 772 710 772 710 740 696.5 c 128,-1,20
 708 683 708 683 686 662 c 128,-1,21
 664 641 664 641 651.5 616 c 128,-1,22
 639 591 639 591 634 568 c 1,23,-1
 634 0 l 1,24,-1
 186 0 l 1,25,-1
 186 1110 l 1,0,-1
EndSplineSet
EndChar

StartChar: s
Encoding: 115 115 86
Width: 1196
GlyphClass: 2
Flags: W
LayerCount: 2
Fore
SplineSet
604 -43 m 0,0,1
 489 -43 489 -43 379 -19 c 128,-1,2
 269 5 269 5 173 47 c 1,3,-1
 173 340 l 1,4,5
 207 323 207 323 249 309 c 128,-1,6
 291 295 291 295 334.5 285.5 c 128,-1,7
 378 276 378 276 421.5 270.5 c 128,-1,8
 465 265 465 265 503 265 c 0,9,10
 554 265 554 265 577.5 278 c 128,-1,11
 601 291 601 291 601 331 c 0,12,13
 601 361 601 361 567 381 c 128,-1,14
 533 401 533 401 482 423 c 0,15,16
 428 446 428 446 366 475.5 c 128,-1,17
 304 505 304 505 251.5 549.5 c 128,-1,18
 199 594 199 594 164 657.5 c 128,-1,19
 129 721 129 721 129 811 c 0,20,21
 129 876 129 876 159.5 936.5 c 128,-1,22
 190 997 190 997 248.5 1043.5 c 128,-1,23
 307 1090 307 1090 392.5 1117.5 c 128,-1,24
 478 1145 478 1145 588 1145 c 0,25,26
 676 1145 676 1145 746.5 1133 c 128,-1,27
 817 1121 817 1121 870 1104.5 c 128,-1,28
 923 1088 923 1088 958 1071.5 c 128,-1,29
 993 1055 993 1055 1008 1046 c 1,30,-1
 979 789 l 1,31,32
 948 805 948 805 911.5 819 c 128,-1,33
 875 833 875 833 837.5 843.5 c 128,-1,34
 800 854 800 854 764.5 860 c 128,-1,35
 729 866 729 866 699 866 c 0,36,37
 641 866 641 866 615.5 851 c 128,-1,38
 590 836 590 836 590 800 c 0,39,40
 590 782 590 782 601.5 768 c 128,-1,41
 613 754 613 754 632.5 741.5 c 128,-1,42
 652 729 652 729 678 718 c 128,-1,43
 704 707 704 707 734 696 c 0,44,45
 768 683 768 683 807 666 c 128,-1,46
 846 649 846 649 884 627 c 128,-1,47
 922 605 922 605 956.5 576 c 128,-1,48
 991 547 991 547 1018 510 c 128,-1,49
 1045 473 1045 473 1060.5 426.5 c 128,-1,50
 1076 380 1076 380 1076 322 c 0,51,52
 1076 254 1076 254 1047.5 188.5 c 128,-1,53
 1019 123 1019 123 960.5 71.5 c 128,-1,54
 902 20 902 20 813.5 -11.5 c 128,-1,55
 725 -43 725 -43 604 -43 c 0,0,1
EndSplineSet
EndChar

StartChar: t
Encoding: 116 116 87
Width: 1206
GlyphClass: 2
Flags: W
LayerCount: 2
Fore
SplineSet
767 -41 m 0,0,1
 675 -41 675 -41 590 -17.5 c 128,-1,2
 505 6 505 6 439.5 60.5 c 128,-1,3
 374 115 374 115 335 206 c 128,-1,4
 296 297 296 297 296 432 c 2,5,-1
 296 839 l 1,6,-1
 65 839 l 1,7,-1
 65 1039 l 1,8,-1
 336 1109 l 1,9,-1
 424 1465 l 1,10,-1
 744 1465 l 1,11,-1
 744 1110 l 1,12,-1
 1055 1110 l 1,13,-1
 1030 839 l 1,14,-1
 744 839 l 1,15,-1
 744 456 l 2,16,17
 744 420 744 420 749.5 387 c 128,-1,18
 755 354 755 354 771 329 c 128,-1,19
 787 304 787 304 816 289 c 128,-1,20
 845 274 845 274 892 274 c 0,21,22
 926 274 926 274 967 281 c 128,-1,23
 1008 288 1008 288 1060 305 c 1,24,-1
 1104 23 l 1,25,26
 1036 -5 1036 -5 949 -23 c 128,-1,27
 862 -41 862 -41 767 -41 c 0,0,1
EndSplineSet
EndChar

StartChar: u
Encoding: 117 117 88
Width: 1574
GlyphClass: 2
Flags: W
LayerCount: 2
Fore
SplineSet
556 -37 m 0,0,1
 482 -37 482 -37 413.5 -11.5 c 128,-1,2
 345 14 345 14 292.5 70.5 c 128,-1,3
 240 127 240 127 208 216 c 128,-1,4
 176 305 176 305 176 432 c 2,5,-1
 176 1110 l 1,6,-1
 624 1110 l 1,7,-1
 624 540 l 2,8,9
 624 465 624 465 636.5 412.5 c 128,-1,10
 649 360 649 360 670 327.5 c 128,-1,11
 691 295 691 295 718.5 280.5 c 128,-1,12
 746 266 746 266 775 266 c 0,13,14
 803 266 803 266 830.5 279.5 c 128,-1,15
 858 293 858 293 881 316.5 c 128,-1,16
 904 340 904 340 920 371 c 128,-1,17
 936 402 936 402 941 437 c 1,18,-1
 941 1110 l 1,19,-1
 1389 1110 l 1,20,-1
 1389 0 l 1,21,-1
 933 0 l 1,22,23
 941 25 941 25 948 56 c 0,24,25
 953 82 953 82 958 118.5 c 128,-1,26
 963 155 963 155 963 199 c 1,27,28
 939 150 939 150 894 107 c 128,-1,29
 849 64 849 64 793 32 c 128,-1,30
 737 0 737 0 675.5 -18.5 c 128,-1,31
 614 -37 614 -37 556 -37 c 0,0,1
EndSplineSet
EndChar

StartChar: v
Encoding: 118 118 89
Width: 1452
GlyphClass: 2
Flags: W
LayerCount: 2
Fore
SplineSet
92 1110 m 1,0,-1
 582 1110 l 1,1,-1
 797 351 l 1,2,-1
 988 1110 l 1,3,-1
 1351 1110 l 1,4,-1
 1020 0 l 1,5,-1
 473 0 l 1,6,-1
 92 1110 l 1,0,-1
EndSplineSet
EndChar

StartChar: w
Encoding: 119 119 90
Width: 2203
GlyphClass: 2
Flags: W
LayerCount: 2
Fore
SplineSet
132 1110 m 1,0,-1
 622 1110 l 1,1,-1
 753 411 l 1,2,-1
 924 1110 l 1,3,-1
 1414 1110 l 1,4,-1
 1584 411 l 1,5,-1
 1708 1110 l 1,6,-1
 2070 1110 l 1,7,-1
 1816 0 l 1,8,-1
 1260 0 l 1,9,-1
 1111 518 l 1,10,-1
 975 0 l 1,11,-1
 391 0 l 1,12,-1
 132 1110 l 1,0,-1
EndSplineSet
EndChar

StartChar: x
Encoding: 120 120 91
Width: 1581
GlyphClass: 2
Flags: W
LayerCount: 2
Fore
SplineSet
1085 562 m 1,0,-1
 1445 0 l 1,1,-1
 955 0 l 1,2,-1
 740 359 l 1,3,-1
 549 0 l 1,4,-1
 186 0 l 1,5,-1
 496 556 l 1,6,-1
 136 1110 l 1,7,-1
 626 1110 l 1,8,-1
 851 750 l 1,9,-1
 1032 1110 l 1,10,-1
 1395 1110 l 1,11,-1
 1085 562 l 1,0,-1
EndSplineSet
EndChar

StartChar: y
Encoding: 121 121 92
Width: 1506
GlyphClass: 2
Flags: W
LayerCount: 2
Fore
SplineSet
905 1110 m 1,0,-1
 1353 1110 l 1,1,-1
 1353 162 l 2,2,3
 1353 49 1353 49 1328 -37.5 c 128,-1,4
 1303 -124 1303 -124 1257.5 -188.5 c 128,-1,5
 1212 -253 1212 -253 1150 -297 c 128,-1,6
 1088 -341 1088 -341 1013.5 -368 c 128,-1,7
 939 -395 939 -395 855.5 -406.5 c 128,-1,8
 772 -418 772 -418 684 -418 c 0,9,10
 584 -418 584 -418 487.5 -405 c 128,-1,11
 391 -392 391 -392 296 -372 c 1,12,-1
 296 -78 l 1,13,14
 399 -86 399 -86 483.5 -96.5 c 128,-1,15
 568 -107 568 -107 640 -107 c 0,16,17
 703 -107 703 -107 752 -95 c 128,-1,18
 801 -83 801 -83 835 -50.5 c 128,-1,19
 869 -18 869 -18 887 39 c 128,-1,20
 905 96 905 96 905 186 c 2,21,-1
 905 269 l 1,22,23
 879 216 879 216 840.5 174 c 128,-1,24
 802 132 802 132 754 103.5 c 128,-1,25
 706 75 706 75 652 60 c 128,-1,26
 598 45 598 45 543 45 c 0,27,28
 463 45 463 45 390 71.5 c 128,-1,29
 317 98 317 98 261 155 c 128,-1,30
 205 212 205 212 171.5 301 c 128,-1,31
 138 390 138 390 138 515 c 2,32,-1
 138 1110 l 1,33,-1
 586 1110 l 1,34,-1
 586 605 l 2,35,36
 586 516 586 516 603 464.5 c 128,-1,37
 620 413 620 413 645.5 386.5 c 128,-1,38
 671 360 671 360 700 353 c 128,-1,39
 729 346 729 346 753 346 c 0,40,41
 775 346 775 346 793.5 353 c 128,-1,42
 812 360 812 360 826.5 372 c 128,-1,43
 841 384 841 384 852.5 399.5 c 128,-1,44
 864 415 864 415 873 431 c 0,45,46
 893 469 893 469 905 517 c 1,47,-1
 905 1110 l 1,0,-1
EndSplineSet
EndChar

StartChar: z
Encoding: 122 122 93
Width: 1222
GlyphClass: 2
Flags: W
LayerCount: 2
Fore
SplineSet
706 271 m 1,0,-1
 1063 271 l 1,1,2
 1055 231 1055 231 1050 186 c 0,3,4
 1045 148 1045 148 1041.5 99.5 c 128,-1,5
 1038 51 1038 51 1038 0 c 1,6,-1
 170 0 l 1,7,-1
 170 271 l 1,8,-1
 513 838 l 1,9,-1
 163 838 l 1,10,-1
 188 1110 l 1,11,-1
 1047 1110 l 1,12,-1
 1047 838 l 1,13,-1
 706 271 l 1,0,-1
EndSplineSet
EndChar

StartChar: braceleft
Encoding: 123 123 94
Width: 975
GlyphClass: 2
Flags: W
LayerCount: 2
Fore
SplineSet
208 1055 m 0,0,1
 208 1172 208 1172 247 1277.5 c 128,-1,2
 286 1383 286 1383 361 1462.5 c 128,-1,3
 436 1542 436 1542 545.5 1589 c 128,-1,4
 655 1636 655 1636 797 1636 c 1,5,-1
 797 1409 l 1,6,7
 748 1409 748 1409 721.5 1380 c 128,-1,8
 695 1351 695 1351 683 1304 c 128,-1,9
 671 1257 671 1257 669 1197 c 128,-1,10
 667 1137 667 1137 667 1075 c 0,11,12
 667 1029 667 1029 652.5 980 c 128,-1,13
 638 931 638 931 609 887.5 c 128,-1,14
 580 844 580 844 536.5 810.5 c 128,-1,15
 493 777 493 777 434 762 c 1,16,17
 493 747 493 747 536.5 713.5 c 128,-1,18
 580 680 580 680 609 636.5 c 128,-1,19
 638 593 638 593 652.5 544 c 128,-1,20
 667 495 667 495 667 450 c 0,21,22
 667 388 667 388 669 328 c 128,-1,23
 671 268 671 268 683 221 c 128,-1,24
 695 174 695 174 721.5 145 c 128,-1,25
 748 116 748 116 797 116 c 1,26,-1
 797 -111 l 1,27,28
 655 -111 655 -111 545.5 -64 c 128,-1,29
 436 -17 436 -17 361 62.5 c 128,-1,30
 286 142 286 142 247 247.5 c 128,-1,31
 208 353 208 353 208 470 c 0,32,33
 208 507 208 507 196 533 c 128,-1,34
 184 559 184 559 163.5 574.5 c 128,-1,35
 143 590 143 590 116 597 c 128,-1,36
 89 604 89 604 58 604 c 1,37,-1
 58 921 l 1,38,39
 89 921 89 921 116 928 c 128,-1,40
 143 935 143 935 163.5 950.5 c 128,-1,41
 184 966 184 966 196 991.5 c 128,-1,42
 208 1017 208 1017 208 1055 c 0,0,1
EndSplineSet
EndChar

StartChar: braceright
Encoding: 125 125 96
Width: 975
GlyphClass: 2
Flags: W
LayerCount: 2
Fore
SplineSet
768 1055 m 0,0,1
 768 1017 768 1017 780 991.5 c 128,-1,2
 792 966 792 966 812.5 950.5 c 128,-1,3
 833 935 833 935 860 928 c 128,-1,4
 887 921 887 921 918 921 c 1,5,-1
 918 604 l 1,6,7
 887 604 887 604 860 597 c 128,-1,8
 833 590 833 590 812.5 574.5 c 128,-1,9
 792 559 792 559 780 533 c 128,-1,10
 768 507 768 507 768 470 c 0,11,12
 768 353 768 353 729 247.5 c 128,-1,13
 690 142 690 142 615 62.5 c 128,-1,14
 540 -17 540 -17 430.5 -64 c 128,-1,15
 321 -111 321 -111 179 -111 c 1,16,-1
 179 116 l 1,17,18
 228 116 228 116 254.5 145 c 128,-1,19
 281 174 281 174 293 221 c 128,-1,20
 305 268 305 268 307 328 c 128,-1,21
 309 388 309 388 309 450 c 0,22,23
 309 495 309 495 323.5 544 c 128,-1,24
 338 593 338 593 367 636.5 c 128,-1,25
 396 680 396 680 439.5 713.5 c 128,-1,26
 483 747 483 747 542 762 c 1,27,28
 483 777 483 777 439.5 810.5 c 128,-1,29
 396 844 396 844 367 887.5 c 128,-1,30
 338 931 338 931 323.5 980 c 128,-1,31
 309 1029 309 1029 309 1075 c 0,32,33
 309 1137 309 1137 307 1197 c 128,-1,34
 305 1257 305 1257 293 1304 c 128,-1,35
 281 1351 281 1351 254.5 1380 c 128,-1,36
 228 1409 228 1409 179 1409 c 1,37,-1
 179 1636 l 1,38,39
 321 1636 321 1636 430.5 1589 c 128,-1,40
 540 1542 540 1542 615 1462.5 c 128,-1,41
 690 1383 690 1383 729 1277.5 c 128,-1,42
 768 1172 768 1172 768 1055 c 0,0,1
EndSplineSet
EndChar

StartChar: asciitilde
Encoding: 126 126 97
Width: 1436
GlyphClass: 2
Flags: W
LayerCount: 2
Fore
SplineSet
85 711 m 0,0,1
 85 803 85 803 66 892 c 128,-1,2
 47 981 47 981 14.5 1050.5 c 128,-1,3
 -18 1120 -18 1120 -62 1162.5 c 128,-1,4
 -106 1205 -106 1205 -155 1205 c 1,5,-1
 -155 1462 l 1,6,7
 5 1462 5 1462 129.5 1400.5 c 128,-1,8
 254 1339 254 1339 339.5 1235.5 c 128,-1,9
 425 1132 425 1132 469.5 996 c 128,-1,10
 514 860 514 860 514 711 c 0,11,12
 514 619 514 619 533 530 c 128,-1,13
 552 441 552 441 584.5 371.5 c 128,-1,14
 617 302 617 302 660.5 259.5 c 128,-1,15
 704 217 704 217 754 217 c 1,16,-1
 754 -40 l 1,17,18
 594 -40 594 -40 469.5 21.5 c 128,-1,19
 345 83 345 83 259.5 186.5 c 128,-1,20
 174 290 174 290 129.5 426 c 128,-1,21
 85 562 85 562 85 711 c 0,0,1
EndSplineSet
EndChar

StartChar: cent
Encoding: 162 162 100
Width: 1198
GlyphClass: 2
Flags: W
LayerCount: 2
Fore
SplineSet
602 160 m 1,0,1
 500 177 500 177 413 222.5 c 128,-1,2
 326 268 326 268 262 341 c 128,-1,3
 198 414 198 414 161.5 515 c 128,-1,4
 125 616 125 616 125 745 c 0,5,6
 125 848 125 848 157 944 c 128,-1,7
 189 1040 189 1040 249.5 1118 c 128,-1,8
 310 1196 310 1196 399 1250 c 128,-1,9
 488 1304 488 1304 602 1323 c 1,10,-1
 602 1465 l 1,11,-1
 840 1465 l 1,12,-1
 840 1325 l 1,13,14
 976 1308 976 1308 1108 1249 c 1,15,-1
 1088 951 l 1,16,17
 1034 985 1034 985 963.5 1001 c 128,-1,18
 893 1017 893 1017 827 1017 c 0,19,20
 773 1017 773 1017 728.5 999 c 128,-1,21
 684 981 684 981 651.5 946.5 c 128,-1,22
 619 912 619 912 601 861 c 128,-1,23
 583 810 583 810 583 743 c 256,24,25
 583 676 583 676 599.5 624.5 c 128,-1,26
 616 573 616 573 647 538 c 128,-1,27
 678 503 678 503 721 485 c 128,-1,28
 764 467 764 467 818 467 c 0,29,30
 890 467 890 467 958 483 c 128,-1,31
 1026 499 1026 499 1093 533 c 1,32,-1
 1126 241 l 1,33,34
 1061 207 1061 207 989 185.5 c 128,-1,35
 917 164 917 164 840 155 c 1,36,-1
 840 0 l 1,37,-1
 602 0 l 1,38,-1
 602 160 l 1,0,1
EndSplineSet
EndChar

StartChar: sterling
Encoding: 163 163 101
Width: 1327
GlyphClass: 2
Flags: W
LayerCount: 2
Fore
SplineSet
115 651 m 0,0,1
 115 688 115 688 103 714 c 128,-1,2
 91 740 91 740 70.5 755.5 c 128,-1,3
 50 771 50 771 23 778 c 128,-1,4
 -4 785 -4 785 -35 785 c 1,5,-1
 -35 1042 l 1,6,7
 98 1042 98 1042 200 1007 c 128,-1,8
 302 972 302 972 372 912 c 128,-1,9
 442 852 442 852 478 772 c 128,-1,10
 514 692 514 692 514 601 c 0,11,12
 514 524 514 524 516.5 449.5 c 128,-1,13
 519 375 519 375 534 316.5 c 128,-1,14
 549 258 549 258 581.5 222.5 c 128,-1,15
 614 187 614 187 674 187 c 1,16,-1
 674 -40 l 1,17,18
 539 -40 539 -40 435 16.5 c 128,-1,19
 331 73 331 73 259.5 168 c 128,-1,20
 188 263 188 263 151.5 388 c 128,-1,21
 115 513 115 513 115 651 c 0,0,1
115 351 m 0,22,23
 115 489 115 489 151.5 614 c 128,-1,24
 188 739 188 739 259.5 834 c 128,-1,25
 331 929 331 929 435 985.5 c 128,-1,26
 539 1042 539 1042 674 1042 c 1,27,-1
 674 815 l 1,28,29
 614 815 614 815 581.5 779.5 c 128,-1,30
 549 744 549 744 534 685.5 c 128,-1,31
 519 627 519 627 516.5 552.5 c 128,-1,32
 514 478 514 478 514 401 c 0,33,34
 514 310 514 310 478 230 c 128,-1,35
 442 150 442 150 372 90 c 128,-1,36
 302 30 302 30 200 -5 c 128,-1,37
 98 -40 98 -40 -35 -40 c 1,38,-1
 -35 217 l 1,39,40
 -4 217 -4 217 23 224 c 128,-1,41
 50 231 50 231 70.5 246.5 c 128,-1,42
 91 262 91 262 103 287.5 c 128,-1,43
 115 313 115 313 115 351 c 0,22,23
EndSplineSet
EndChar

StartChar: currency
Encoding: 164 164 102
Width: 1463
GlyphClass: 2
Flags: W
LayerCount: 2
Fore
SplineSet
588 298 m 256,0,1
 484 298 484 298 405 333 c 128,-1,2
 326 368 326 368 273 425 c 128,-1,3
 220 482 220 482 193 555 c 128,-1,4
 166 628 166 628 166 705 c 256,5,6
 166 782 166 782 192.5 855 c 128,-1,7
 219 928 219 928 272 985 c 128,-1,8
 325 1042 325 1042 404 1076.5 c 128,-1,9
 483 1111 483 1111 588 1111 c 0,10,11
 692 1111 692 1111 771 1076.5 c 128,-1,12
 850 1042 850 1042 903 985 c 128,-1,13
 956 928 956 928 982.5 855 c 128,-1,14
 1009 782 1009 782 1009 705 c 256,15,16
 1009 628 1009 628 982 555 c 128,-1,17
 955 482 955 482 902 425 c 128,-1,18
 849 368 849 368 770.5 333 c 128,-1,19
 692 298 692 298 588 298 c 256,0,1
587 474 m 0,20,21
 640 474 640 474 681 494 c 128,-1,22
 722 514 722 514 749.5 546 c 128,-1,23
 777 578 777 578 791 619.5 c 128,-1,24
 805 661 805 661 805 705 c 0,25,26
 805 748 805 748 791 789.5 c 128,-1,27
 777 831 777 831 749.5 863.5 c 128,-1,28
 722 896 722 896 681.5 915.5 c 128,-1,29
 641 935 641 935 587 935 c 256,30,31
 533 935 533 935 491.5 915.5 c 128,-1,32
 450 896 450 896 422.5 863.5 c 128,-1,33
 395 831 395 831 381 789.5 c 128,-1,34
 367 748 367 748 367 705 c 0,35,36
 367 661 367 661 381 619.5 c 128,-1,37
 395 578 395 578 423 546 c 128,-1,38
 451 514 451 514 492 494 c 128,-1,39
 533 474 533 474 587 474 c 0,20,21
EndSplineSet
EndChar

StartChar: yen
Encoding: 165 165 103
Width: 1474
GlyphClass: 2
Flags: W
LayerCount: 2
Fore
SplineSet
383 859 m 1,0,-1
 80 1465 l 1,1,-1
 620 1465 l 1,2,-1
 801 1027 l 1,3,-1
 974 1465 l 1,4,-1
 1382 1465 l 1,5,-1
 1115 859 l 1,6,-1
 1365 859 l 1,7,-1
 1365 582 l 1,8,-1
 994 582 l 1,9,-1
 994 476 l 1,10,-1
 1365 476 l 1,11,-1
 1365 220 l 1,12,-1
 994 220 l 1,13,-1
 994 0 l 1,14,-1
 521 0 l 1,15,-1
 521 220 l 1,16,-1
 103 220 l 1,17,-1
 103 476 l 1,18,-1
 521 476 l 1,19,-1
 521 582 l 1,20,-1
 103 582 l 1,21,-1
 103 859 l 1,22,-1
 383 859 l 1,0,-1
EndSplineSet
EndChar

StartChar: acute
Encoding: 180 180 114
Width: 709
GlyphClass: 2
Flags: W
LayerCount: 2
Fore
SplineSet
132 1263 m 1,0,-1
 218 1804 l 1,1,-1
 689 1804 l 1,2,3
 582 1602 582 1602 519 1470.5 c 128,-1,4
 456 1339 456 1339 425 1263 c 1,5,-1
 132 1263 l 1,0,-1
EndSplineSet
EndChar

StartChar: cedilla
Encoding: 184 184 118
Width: 1245
GlyphClass: 2
Flags: W
LayerCount: 2
Fore
SplineSet
694 -478 m 1,0,1
 716 -478 716 -478 736 -471 c 128,-1,2
 756 -464 756 -464 771 -451.5 c 128,-1,3
 786 -439 786 -439 794.5 -422 c 128,-1,4
 803 -405 803 -405 803 -385 c 0,5,6
 803 -349 803 -349 779.5 -325.5 c 128,-1,7
 756 -302 756 -302 721 -287.5 c 128,-1,8
 686 -273 686 -273 645 -266 c 128,-1,9
 604 -259 604 -259 569 -256 c 1,10,-1
 570 -92 l 1,11,12
 592 -90 592 -90 614 -89 c 128,-1,13
 636 -88 636 -88 659 -88 c 0,14,15
 717 -88 717 -88 777 -96 c 128,-1,16
 837 -104 837 -104 893 -121 c 128,-1,17
 949 -138 949 -138 998 -165.5 c 128,-1,18
 1047 -193 1047 -193 1083 -232 c 128,-1,19
 1119 -271 1119 -271 1140 -322 c 128,-1,20
 1161 -373 1161 -373 1161 -438 c 0,21,22
 1161 -498 1161 -498 1128.5 -558 c 128,-1,23
 1096 -618 1096 -618 1036 -666 c 128,-1,24
 976 -714 976 -714 889.5 -744 c 128,-1,25
 803 -774 803 -774 695 -774 c 1,26,-1
 694 -478 l 1,0,1
EndSplineSet
EndChar

StartChar: Eth
Encoding: 208 208 138
Width: 1449
GlyphClass: 2
Flags: W
LayerCount: 2
Fore
SplineSet
572 0 m 0,0,1
 571 0 571 0 550 0 c 128,-1,2
 529 0 529 0 496 0.5 c 128,-1,3
 463 1 463 1 421.5 1.5 c 128,-1,4
 380 2 380 2 337 2 c 0,5,6
 235 3 235 3 107 5 c 1,7,-1
 107 1426 l 1,8,-1
 576 1426 l 2,9,10
 753 1426 753 1426 897.5 1381.5 c 128,-1,11
 1042 1337 1042 1337 1144.5 1248 c 128,-1,12
 1247 1159 1247 1159 1303 1025 c 128,-1,13
 1359 891 1359 891 1359 712 c 0,14,15
 1359 578 1359 578 1330.5 473 c 128,-1,16
 1302 368 1302 368 1250 289 c 128,-1,17
 1198 210 1198 210 1125.5 155 c 128,-1,18
 1053 100 1053 100 965.5 65.5 c 128,-1,19
 878 31 878 31 778 15.5 c 128,-1,20
 678 0 678 0 572 0 c 0,0,1
538 320 m 1,21,22
 540 320 540 320 546.5 320 c 128,-1,23
 553 320 553 320 560 319.5 c 128,-1,24
 567 319 567 319 573.5 319 c 128,-1,25
 580 319 580 319 582 319 c 0,26,27
 663 320 663 320 725.5 335 c 128,-1,28
 788 350 788 350 831.5 393 c 128,-1,29
 875 436 875 436 897.5 514 c 128,-1,30
 920 592 920 592 920 719 c 1,31,32
 922 835 922 835 902.5 911.5 c 128,-1,33
 883 988 883 988 842 1033 c 128,-1,34
 801 1078 801 1078 738 1096 c 128,-1,35
 675 1114 675 1114 591 1114 c 1,36,37
 589 1113 589 1113 582 1112.5 c 128,-1,38
 575 1112 575 1112 566.5 1111.5 c 128,-1,39
 558 1111 558 1111 550 1111 c 128,-1,40
 542 1111 542 1111 538 1111 c 1,41,-1
 538 715 l 1,42,-1
 538 320 l 1,21,22
748 847 m 1,43,-1
 748 579 l 1,44,-1
 0 579 l 1,45,-1
 0 847 l 1,46,-1
 748 847 l 1,43,-1
EndSplineSet
EndChar

StartChar: multiply
Encoding: 215 215 145
Width: 928
GlyphClass: 2
Flags: W
LayerCount: 2
Fore
SplineSet
676 684 m 1,0,-1
 871 490 l 1,1,-1
 658 277 l 1,2,-1
 464 471 l 1,3,-1
 270 277 l 1,4,-1
 57 490 l 1,5,-1
 251 684 l 1,6,-1
 57 879 l 1,7,-1
 270 1092 l 1,8,-1
 464 897 l 1,9,-1
 658 1092 l 1,10,-1
 871 879 l 1,11,-1
 676 684 l 1,0,-1
EndSplineSet
EndChar

StartChar: ae
Encoding: 230 230 158
Width: 2088
GlyphClass: 2
Flags: W
LayerCount: 2
Fore
SplineSet
1462 -41 m 0,0,1
 1350 -41 1350 -41 1248 -11.5 c 128,-1,2
 1146 18 1146 18 1065 81 c 1,3,4
 1018 51 1018 51 961.5 27.5 c 128,-1,5
 905 4 905 4 844 -12 c 128,-1,6
 783 -28 783 -28 718.5 -36.5 c 128,-1,7
 654 -45 654 -45 591 -45 c 0,8,9
 510 -45 510 -45 433.5 -27.5 c 128,-1,10
 357 -10 357 -10 297.5 27 c 128,-1,11
 238 64 238 64 202.5 120 c 128,-1,12
 167 176 167 176 167 254 c 0,13,14
 167 336 167 336 191.5 396.5 c 128,-1,15
 216 457 216 457 257 499 c 128,-1,16
 298 541 298 541 352 567.5 c 128,-1,17
 406 594 406 594 464.5 608.5 c 128,-1,18
 523 623 523 623 583 628.5 c 128,-1,19
 643 634 643 634 697 634 c 0,20,21
 731 634 731 634 760 632.5 c 128,-1,22
 789 631 789 631 810.5 629.5 c 128,-1,23
 832 628 832 628 844.5 627 c 128,-1,24
 857 626 857 626 858 626 c 1,25,-1
 858 648 l 2,26,27
 858 693 858 693 842.5 724 c 128,-1,28
 827 755 827 755 801 774 c 128,-1,29
 775 793 775 793 739 801.5 c 128,-1,30
 703 810 703 810 663 810 c 0,31,32
 598 810 598 810 523.5 797.5 c 128,-1,33
 449 785 449 785 381 767 c 128,-1,34
 313 749 313 749 259 729 c 128,-1,35
 205 709 205 709 181 694 c 1,36,-1
 181 1002 l 1,37,38
 222 1029 222 1029 285.5 1054.5 c 128,-1,39
 349 1080 349 1080 423.5 1100 c 128,-1,40
 498 1120 498 1120 578 1132.5 c 128,-1,41
 658 1145 658 1145 732 1145 c 0,42,43
 838 1145 838 1145 934 1120.5 c 128,-1,44
 1030 1096 1030 1096 1105 1041 c 1,45,46
 1185 1092 1185 1092 1276 1117.5 c 128,-1,47
 1367 1143 1367 1143 1456 1143 c 0,48,49
 1568 1143 1568 1143 1655.5 1113 c 128,-1,50
 1743 1083 1743 1083 1803 1035 c 128,-1,51
 1863 987 1863 987 1894.5 927 c 128,-1,52
 1926 867 1926 867 1926 807 c 0,53,54
 1926 702 1926 702 1882.5 629.5 c 128,-1,55
 1839 557 1839 557 1769 512 c 128,-1,56
 1699 467 1699 467 1612.5 447 c 128,-1,57
 1526 427 1526 427 1440 427 c 0,58,59
 1396 427 1396 427 1356 430.5 c 128,-1,60
 1316 434 1316 434 1278 439 c 1,61,62
 1279 395 1279 395 1297.5 363.5 c 128,-1,63
 1316 332 1316 332 1348.5 312 c 128,-1,64
 1381 292 1381 292 1425 282.5 c 128,-1,65
 1469 273 1469 273 1521 273 c 0,66,67
 1560 273 1560 273 1605 278 c 128,-1,68
 1650 283 1650 283 1695 292.5 c 128,-1,69
 1740 302 1740 302 1782 315.5 c 128,-1,70
 1824 329 1824 329 1857 347 c 1,71,-1
 1907 53 l 1,72,73
 1806 8 1806 8 1694.5 -16.5 c 128,-1,74
 1583 -41 1583 -41 1462 -41 c 0,0,1
1276 611 m 1,75,76
 1301 612 1301 612 1336.5 615 c 128,-1,77
 1372 618 1372 618 1410 624 c 128,-1,78
 1448 630 1448 630 1485 640.5 c 128,-1,79
 1522 651 1522 651 1551.5 667.5 c 128,-1,80
 1581 684 1581 684 1599.5 707.5 c 128,-1,81
 1618 731 1618 731 1618 764 c 0,82,83
 1618 793 1618 793 1608.5 817.5 c 128,-1,84
 1599 842 1599 842 1581.5 859.5 c 128,-1,85
 1564 877 1564 877 1539.5 887 c 128,-1,86
 1515 897 1515 897 1485 897 c 256,87,88
 1455 897 1455 897 1422.5 889 c 128,-1,89
 1390 881 1390 881 1360.5 858.5 c 128,-1,90
 1331 836 1331 836 1308 797 c 128,-1,91
 1285 758 1285 758 1274 697 c 1,92,93
 1275 686 1275 686 1275.5 676 c 128,-1,94
 1276 666 1276 666 1276 655 c 2,95,-1
 1276 611 l 1,75,76
620 206 m 0,96,97
 675 206 675 206 728 215.5 c 128,-1,98
 781 225 781 225 822 237 c 128,-1,99
 863 249 863 249 889 259 c 128,-1,100
 915 269 915 269 917 270 c 1,101,102
 912 282 912 282 906.5 295 c 128,-1,103
 901 308 901 308 894 327 c 128,-1,104
 887 346 887 346 878.5 372.5 c 128,-1,105
 870 399 870 399 858 437 c 1,106,-1
 837 437 l 2,107,108
 778 437 778 437 718 429.5 c 128,-1,109
 658 422 658 422 610 407 c 128,-1,110
 562 392 562 392 531.5 369.5 c 128,-1,111
 501 347 501 347 501 317 c 256,112,113
 501 287 501 287 511 266 c 128,-1,114
 521 245 521 245 537.5 231.5 c 128,-1,115
 554 218 554 218 575.5 212 c 128,-1,116
 597 206 597 206 620 206 c 0,96,97
EndSplineSet
EndChar

StartChar: thorn
Encoding: 254 254 181
Width: 1594
GlyphClass: 2
Flags: W
LayerCount: 2
Fore
SplineSet
168 1464 m 1,0,-1
 616 1464 l 1,1,-1
 616 972 l 1,2,3
 637 1010 637 1010 673.5 1042.5 c 128,-1,4
 710 1075 710 1075 758 1098.5 c 128,-1,5
 806 1122 806 1122 861.5 1135.5 c 128,-1,6
 917 1149 917 1149 976 1149 c 0,7,8
 1036 1149 1036 1149 1096 1135.5 c 128,-1,9
 1156 1122 1156 1122 1210.5 1092.5 c 128,-1,10
 1265 1063 1265 1063 1312.5 1017 c 128,-1,11
 1360 971 1360 971 1394.5 905 c 128,-1,12
 1429 839 1429 839 1449 752 c 128,-1,13
 1469 665 1469 665 1469 555 c 256,14,15
 1469 445 1469 445 1449 358 c 128,-1,16
 1429 271 1429 271 1394.5 205 c 128,-1,17
 1360 139 1360 139 1312.5 93 c 128,-1,18
 1265 47 1265 47 1210.5 17.5 c 128,-1,19
 1156 -12 1156 -12 1096 -25.5 c 128,-1,20
 1036 -39 1036 -39 976 -39 c 0,21,22
 917 -39 917 -39 861.5 -25.5 c 128,-1,23
 806 -12 806 -12 758 11.5 c 128,-1,24
 710 35 710 35 673.5 67.5 c 128,-1,25
 637 100 637 100 616 138 c 1,26,-1
 616 -354 l 1,27,-1
 168 -354 l 1,28,-1
 168 1464 l 1,0,-1
616 541 m 2,29,30
 616 467 616 467 631 414.5 c 128,-1,31
 646 362 646 362 671.5 329 c 128,-1,32
 697 296 697 296 730.5 281 c 128,-1,33
 764 266 764 266 802 266 c 0,34,35
 830 266 830 266 865.5 271 c 128,-1,36
 901 276 901 276 933 303.5 c 128,-1,37
 965 331 965 331 987 389.5 c 128,-1,38
 1009 448 1009 448 1009 555 c 256,39,40
 1009 662 1009 662 987 720.5 c 128,-1,41
 965 779 965 779 933 806.5 c 128,-1,42
 901 834 901 834 865.5 839 c 128,-1,43
 830 844 830 844 802 844 c 0,44,45
 764 844 764 844 730.5 828.5 c 128,-1,46
 697 813 697 813 671.5 779.5 c 128,-1,47
 646 746 646 746 631 692 c 128,-1,48
 616 638 616 638 616 560 c 2,49,-1
 616 541 l 2,29,30
EndSplineSet
EndChar

StartChar: OE
Encoding: 338 338 184
Width: 1959
GlyphClass: 2
Flags: W
LayerCount: 2
Fore
SplineSet
954 0 m 1,0,1
 888 -20 888 -20 828 -29 c 128,-1,2
 768 -38 768 -38 711 -38 c 0,3,4
 607 -38 607 -38 519 -8.5 c 128,-1,5
 431 21 431 21 360 73.5 c 128,-1,6
 289 126 289 126 235 197 c 128,-1,7
 181 268 181 268 144.5 352 c 128,-1,8
 108 436 108 436 89.5 529 c 128,-1,9
 71 622 71 622 71 717 c 256,10,11
 71 812 71 812 92 904 c 128,-1,12
 113 996 113 996 152.5 1079 c 128,-1,13
 192 1162 192 1162 249.5 1233 c 128,-1,14
 307 1304 307 1304 379.5 1355.5 c 128,-1,15
 452 1407 452 1407 539 1436 c 128,-1,16
 626 1465 626 1465 726 1465 c 0,17,18
 781 1465 781 1465 839 1455.5 c 128,-1,19
 897 1446 897 1446 959 1426 c 1,20,-1
 1850 1426 l 1,21,-1
 1850 1109 l 1,22,-1
 1395 1109 l 1,23,-1
 1395 852 l 1,24,-1
 1753 852 l 1,25,-1
 1753 586 l 1,26,-1
 1395 586 l 1,27,-1
 1395 320 l 1,28,-1
 1885 320 l 1,29,-1
 1885 0 l 1,30,-1
 954 0 l 1,0,1
514 715 m 0,31,32
 514 625 514 625 534.5 543.5 c 128,-1,33
 555 462 555 462 594 399.5 c 128,-1,34
 633 337 633 337 690 300.5 c 128,-1,35
 747 264 747 264 821 264 c 0,36,37
 883 264 883 264 952 292 c 1,38,-1
 952 1137 l 1,39,40
 883 1165 883 1165 821 1165 c 0,41,42
 747 1165 747 1165 690 1128.5 c 128,-1,43
 633 1092 633 1092 594 1030.5 c 128,-1,44
 555 969 555 969 534.5 887.5 c 128,-1,45
 514 806 514 806 514 715 c 0,31,32
EndSplineSet
EndChar

StartChar: oe
Encoding: 339 339 185
Width: 2281
GlyphClass: 2
Flags: W
LayerCount: 2
Fore
SplineSet
809 -37 m 0,0,1
 685 -37 685 -37 588.5 -13.5 c 128,-1,2
 492 10 492 10 419 51 c 128,-1,3
 346 92 346 92 295.5 148.5 c 128,-1,4
 245 205 245 205 213.5 271 c 128,-1,5
 182 337 182 337 168 410 c 128,-1,6
 154 483 154 483 154 557 c 256,7,8
 154 631 154 631 168 703.5 c 128,-1,9
 182 776 182 776 213 841.5 c 128,-1,10
 244 907 244 907 294.5 963 c 128,-1,11
 345 1019 345 1019 417.5 1060 c 128,-1,12
 490 1101 490 1101 587 1124 c 128,-1,13
 684 1147 684 1147 809 1147 c 0,14,15
 951 1147 951 1147 1051.5 1106 c 128,-1,16
 1152 1065 1152 1065 1219 997 c 1,17,18
 1311 1071 1311 1071 1423 1107 c 128,-1,19
 1535 1143 1535 1143 1645 1143 c 0,20,21
 1757 1143 1757 1143 1844.5 1113 c 128,-1,22
 1932 1083 1932 1083 1992 1035 c 128,-1,23
 2052 987 2052 987 2083.5 927 c 128,-1,24
 2115 867 2115 867 2115 807 c 0,25,26
 2115 702 2115 702 2071.5 629.5 c 128,-1,27
 2028 557 2028 557 1958 512 c 128,-1,28
 1888 467 1888 467 1801.5 447 c 128,-1,29
 1715 427 1715 427 1629 427 c 0,30,31
 1585 427 1585 427 1545 430.5 c 128,-1,32
 1505 434 1505 434 1467 439 c 1,33,34
 1468 395 1468 395 1486.5 363.5 c 128,-1,35
 1505 332 1505 332 1537.5 312 c 128,-1,36
 1570 292 1570 292 1614 282.5 c 128,-1,37
 1658 273 1658 273 1710 273 c 0,38,39
 1749 273 1749 273 1794 278 c 128,-1,40
 1839 283 1839 283 1884 292.5 c 128,-1,41
 1929 302 1929 302 1971 315.5 c 128,-1,42
 2013 329 2013 329 2046 347 c 1,43,-1
 2096 53 l 1,44,45
 1995 8 1995 8 1883.5 -16.5 c 128,-1,46
 1772 -41 1772 -41 1651 -41 c 0,47,48
 1523 -41 1523 -41 1408.5 -7 c 128,-1,49
 1294 27 1294 27 1206 100 c 1,50,51
 1139 37 1139 37 1041.5 0 c 128,-1,52
 944 -37 944 -37 809 -37 c 0,0,1
809 268 m 0,53,54
 863 268 863 268 902 292.5 c 128,-1,55
 941 317 941 317 966 357.5 c 128,-1,56
 991 398 991 398 1003 449.5 c 128,-1,57
 1015 501 1015 501 1015 555 c 0,58,59
 1015 610 1015 610 1003 662.5 c 128,-1,60
 991 715 991 715 965.5 756.5 c 128,-1,61
 940 798 940 798 901.5 823.5 c 128,-1,62
 863 849 863 849 809 849 c 256,63,64
 755 849 755 849 715.5 823.5 c 128,-1,65
 676 798 676 798 650.5 756.5 c 128,-1,66
 625 715 625 715 613 662.5 c 128,-1,67
 601 610 601 610 601 555 c 0,68,69
 601 501 601 501 613 449.5 c 128,-1,70
 625 398 625 398 650 357.5 c 128,-1,71
 675 317 675 317 714.5 292.5 c 128,-1,72
 754 268 754 268 809 268 c 0,53,54
1455 611 m 1,73,74
 1479 612 1479 612 1514 614.5 c 128,-1,75
 1549 617 1549 617 1588.5 622.5 c 128,-1,76
 1628 628 1628 628 1667 638.5 c 128,-1,77
 1706 649 1706 649 1737 665.5 c 128,-1,78
 1768 682 1768 682 1787.5 706 c 128,-1,79
 1807 730 1807 730 1807 764 c 0,80,81
 1807 793 1807 793 1797.5 817.5 c 128,-1,82
 1788 842 1788 842 1770.5 859.5 c 128,-1,83
 1753 877 1753 877 1728.5 887 c 128,-1,84
 1704 897 1704 897 1674 897 c 0,85,86
 1639 897 1639 897 1601.5 886 c 128,-1,87
 1564 875 1564 875 1532.5 843.5 c 128,-1,88
 1501 812 1501 812 1479.5 756 c 128,-1,89
 1458 700 1458 700 1455 611 c 1,73,74
EndSplineSet
EndChar

StartChar: florin
Encoding: 402 402 187
Width: 1022
GlyphClass: 2
Flags: W
LayerCount: 2
Fore
SplineSet
646 32 m 2,0,1
 646 -101 646 -101 606 -191 c 128,-1,2
 566 -281 566 -281 500 -336 c 128,-1,3
 434 -391 434 -391 349 -414.5 c 128,-1,4
 264 -438 264 -438 174 -438 c 0,5,6
 104 -438 104 -438 36.5 -424 c 128,-1,7
 -31 -410 -31 -410 -82 -387 c 1,8,9
 -82 -387 -82 -387 -80.5 -366 c 128,-1,10
 -79 -345 -79 -345 -76.5 -314 c 128,-1,11
 -74 -283 -74 -283 -71.5 -246 c 128,-1,12
 -69 -209 -69 -209 -66.5 -178 c 128,-1,13
 -64 -147 -64 -147 -62.5 -126 c 128,-1,14
 -61 -105 -61 -105 -61 -105 c 1,15,16
 4 -127 4 -127 44 -127 c 0,17,18
 91 -127 91 -127 121.5 -111.5 c 128,-1,19
 152 -96 152 -96 170 -70.5 c 128,-1,20
 188 -45 188 -45 195 -12 c 128,-1,21
 202 21 202 21 202 57 c 2,22,-1
 202 838 l 1,23,-1
 55 838 l 1,24,-1
 55 1110 l 1,25,-1
 202 1110 l 1,26,-1
 202 1301 l 2,27,28
 202 1428 202 1428 241.5 1513.5 c 128,-1,29
 281 1599 281 1599 346.5 1651.5 c 128,-1,30
 412 1704 412 1704 495.5 1726.5 c 128,-1,31
 579 1749 579 1749 668 1749 c 2,32,-1
 675 1749 l 2,33,34
 762 1749 762 1749 841.5 1731.5 c 128,-1,35
 921 1714 921 1714 984 1688 c 1,36,37
 984 1688 984 1688 982.5 1667 c 128,-1,38
 981 1646 981 1646 978.5 1615 c 128,-1,39
 976 1584 976 1584 973.5 1547 c 128,-1,40
 971 1510 971 1510 968.5 1479 c 128,-1,41
 966 1448 966 1448 964.5 1427 c 128,-1,42
 963 1406 963 1406 963 1406 c 1,43,44
 912 1421 912 1421 871 1429.5 c 128,-1,45
 830 1438 830 1438 798 1438 c 0,46,47
 744 1438 744 1438 713.5 1417.5 c 128,-1,48
 683 1397 683 1397 667 1363 c 128,-1,49
 651 1329 651 1329 647 1285 c 128,-1,50
 643 1241 643 1241 643 1195 c 0,51,52
 643 1175 643 1175 643.5 1154 c 128,-1,53
 644 1133 644 1133 644 1110 c 1,54,-1
 955 1110 l 1,55,56
 947 1069 947 1069 942 1024 c 0,57,58
 937 986 937 986 933.5 937.5 c 128,-1,59
 930 889 930 889 930 838 c 1,60,-1
 646 838 l 1,61,-1
 646 32 l 2,0,1
EndSplineSet
EndChar

StartChar: ring
Encoding: 730 730 192
Width: 1463
GlyphClass: 2
Flags: W
LayerCount: 2
Fore
SplineSet
285 1173 m 0,0,1
 234 1173 234 1173 195 1190.5 c 128,-1,2
 156 1208 156 1208 129.5 1236.5 c 128,-1,3
 103 1265 103 1265 90 1301 c 128,-1,4
 77 1337 77 1337 77 1375 c 256,5,6
 77 1413 77 1413 90 1449 c 128,-1,7
 103 1485 103 1485 129 1513.5 c 128,-1,8
 155 1542 155 1542 194 1559 c 128,-1,9
 233 1576 233 1576 285 1576 c 256,10,11
 337 1576 337 1576 376 1559 c 128,-1,12
 415 1542 415 1542 441 1513.5 c 128,-1,13
 467 1485 467 1485 480.5 1449 c 128,-1,14
 494 1413 494 1413 494 1375 c 256,15,16
 494 1337 494 1337 480.5 1301 c 128,-1,17
 467 1265 467 1265 441 1236.5 c 128,-1,18
 415 1208 415 1208 376 1190.5 c 128,-1,19
 337 1173 337 1173 285 1173 c 0,0,1
284 1280 m 256,20,21
 306 1280 306 1280 322.5 1288 c 128,-1,22
 339 1296 339 1296 350.5 1309.5 c 128,-1,23
 362 1323 362 1323 368 1340 c 128,-1,24
 374 1357 374 1357 374 1375 c 0,25,26
 374 1411 374 1411 351 1440 c 128,-1,27
 328 1469 328 1469 284 1469 c 256,28,29
 240 1469 240 1469 217 1440 c 128,-1,30
 194 1411 194 1411 194 1375 c 0,31,32
 194 1357 194 1357 200 1340 c 128,-1,33
 206 1323 206 1323 217.5 1309.5 c 128,-1,34
 229 1296 229 1296 245.5 1288 c 128,-1,35
 262 1280 262 1280 284 1280 c 256,20,21
EndSplineSet
EndChar

StartChar: Euro
Encoding: 8364 8364 213
Width: 1619
GlyphClass: 2
Flags: W
LayerCount: 2
Fore
SplineSet
180 913 m 1,0,1
 197 1030 197 1030 240.5 1135 c 128,-1,2
 284 1240 284 1240 360 1319.5 c 128,-1,3
 436 1399 436 1399 547 1446 c 128,-1,4
 658 1493 658 1493 810 1493 c 0,5,6
 951 1493 951 1493 1054.5 1448.5 c 128,-1,7
 1158 1404 1158 1404 1230 1327.5 c 128,-1,8
 1302 1251 1302 1251 1344 1150 c 128,-1,9
 1386 1049 1386 1049 1404 936 c 1,10,-1
 987 936 l 1,11,12
 977 989 977 989 960.5 1035 c 128,-1,13
 944 1081 944 1081 922 1115 c 128,-1,14
 900 1149 900 1149 872 1168.5 c 128,-1,15
 844 1188 844 1188 810 1188 c 256,16,17
 776 1188 776 1188 747.5 1166.5 c 128,-1,18
 719 1145 719 1145 697 1108 c 128,-1,19
 675 1071 675 1071 659 1020.5 c 128,-1,20
 643 970 643 970 634 913 c 1,21,-1
 868 913 l 1,22,-1
 868 738 l 1,23,-1
 623 738 l 1,24,-1
 623 643 l 1,25,-1
 868 643 l 1,26,-1
 868 468 l 1,27,-1
 651 468 l 1,28,29
 663 426 663 426 678.5 390.5 c 128,-1,30
 694 355 694 355 714 329.5 c 128,-1,31
 734 304 734 304 758 289.5 c 128,-1,32
 782 275 782 275 810 275 c 0,33,34
 843 275 843 275 871 293.5 c 128,-1,35
 899 312 899 312 921 344.5 c 128,-1,36
 943 377 943 377 959 421.5 c 128,-1,37
 975 466 975 466 986 518 c 1,38,-1
 1412 518 l 1,39,40
 1379 403 1379 403 1334 301.5 c 128,-1,41
 1289 200 1289 200 1219.5 124.5 c 128,-1,42
 1150 49 1150 49 1050.5 5.5 c 128,-1,43
 951 -38 951 -38 810 -38 c 0,44,45
 672 -38 672 -38 568 1.5 c 128,-1,46
 464 41 464 41 389.5 110 c 128,-1,47
 315 179 315 179 268 271 c 128,-1,48
 221 363 221 363 197 468 c 1,49,-1
 31 468 l 1,50,-1
 31 643 l 1,51,-1
 168 643 l 1,52,-1
 168 738 l 1,53,-1
 31 738 l 1,54,-1
 31 913 l 1,55,-1
 180 913 l 1,0,1
EndSplineSet
EndChar

StartChar: fi
Encoding: 64257 64257 228
Width: 1855
GlyphClass: 2
Flags: W
LayerCount: 2
Fore
SplineSet
730 0 m 1,0,-1
 282 0 l 1,1,-1
 282 844 l 1,2,-1
 131 844 l 1,3,-1
 131 1110 l 1,4,-1
 282 1110 l 1,5,-1
 282 1174 l 2,6,7
 282 1289 282 1289 322.5 1367 c 128,-1,8
 363 1445 363 1445 430 1493 c 128,-1,9
 497 1541 497 1541 583.5 1561.5 c 128,-1,10
 670 1582 670 1582 761 1582 c 0,11,12
 830 1582 830 1582 895.5 1570 c 128,-1,13
 961 1558 961 1558 1009 1541 c 1,14,-1
 1009 1289 l 1,15,16
 952 1300 952 1300 906.5 1305.5 c 128,-1,17
 861 1311 861 1311 824 1311 c 0,18,19
 795 1311 795 1311 776.5 1295 c 128,-1,20
 758 1279 758 1279 747.5 1253 c 128,-1,21
 737 1227 737 1227 733.5 1193.5 c 128,-1,22
 730 1160 730 1160 730 1124 c 2,23,-1
 730 1110 l 1,24,-1
 1639 1110 l 1,25,-1
 1639 0 l 1,26,-1
 1191 0 l 1,27,-1
 1191 844 l 1,28,-1
 730 844 l 1,29,-1
 730 0 l 1,0,-1
1405 1243 m 0,30,31
 1348 1243 1348 1243 1298 1252.5 c 128,-1,32
 1248 1262 1248 1262 1211.5 1281.5 c 128,-1,33
 1175 1301 1175 1301 1153.5 1330.5 c 128,-1,34
 1132 1360 1132 1360 1132 1401 c 0,35,36
 1132 1452 1132 1452 1153 1486.5 c 128,-1,37
 1174 1521 1174 1521 1211 1542 c 128,-1,38
 1248 1563 1248 1563 1298 1572 c 128,-1,39
 1348 1581 1348 1581 1406 1581 c 256,40,41
 1464 1581 1464 1581 1514.5 1572 c 128,-1,42
 1565 1563 1565 1563 1602 1542 c 128,-1,43
 1639 1521 1639 1521 1660 1486.5 c 128,-1,44
 1681 1452 1681 1452 1681 1401 c 0,45,46
 1681 1360 1681 1360 1659.5 1330.5 c 128,-1,47
 1638 1301 1638 1301 1601 1281.5 c 128,-1,48
 1564 1262 1564 1262 1513.5 1252.5 c 128,-1,49
 1463 1243 1463 1243 1405 1243 c 0,30,31
EndSplineSet
EndChar

StartChar: fl
Encoding: 64258 64258 229
Width: 1834
GlyphClass: 2
Flags: W
LayerCount: 2
Fore
SplineSet
730 0 m 1,0,-1
 282 0 l 1,1,-1
 282 844 l 1,2,-1
 131 844 l 1,3,-1
 131 1110 l 1,4,-1
 282 1110 l 1,5,-1
 282 1174 l 2,6,7
 282 1289 282 1289 333 1366 c 128,-1,8
 384 1443 384 1443 468 1489.5 c 128,-1,9
 552 1536 552 1536 659.5 1556 c 128,-1,10
 767 1576 767 1576 881 1576 c 2,11,-1
 1646 1576 l 1,12,-1
 1646 0 l 1,13,-1
 1198 0 l 1,14,-1
 1198 1304 l 1,15,-1
 824 1304 l 2,16,17
 795 1304 795 1304 776.5 1293.5 c 128,-1,18
 758 1283 758 1283 747.5 1265 c 128,-1,19
 737 1247 737 1247 733.5 1224 c 128,-1,20
 730 1201 730 1201 730 1177 c 2,21,-1
 730 1110 l 1,22,-1
 1016 1110 l 1,23,-1
 1016 844 l 1,24,-1
 730 844 l 1,25,-1
 730 0 l 1,0,-1
EndSplineSet
EndChar

